SplineFontDB: 3.2
FontName: SapotaErangRegular
FullName: Sapota Erang Regular
FamilyName: Sapota Erang
Weight: Regular
Copyright: Copyright (c) 2024, 
UComments: "2024-2-25: Created with FontForge (http://fontforge.org)"
Version: 001.000
ItalicAngle: 0
UnderlinePosition: -100
UnderlineWidth: 50
Ascent: 800
Descent: 200
InvalidEm: 0
LayerCount: 2
Layer: 0 0 "Back" 1
Layer: 1 0 "Fore" 0
XUID: [1021 386 1071978211 5287596]
StyleMap: 0x0000
FSType: 0
OS2Version: 0
OS2_WeightWidthSlopeOnly: 0
OS2_UseTypoMetrics: 1
CreationTime: 1708870946
ModificationTime: 1708873782
OS2TypoAscent: 0
OS2TypoAOffset: 1
OS2TypoDescent: 0
OS2TypoDOffset: 1
OS2TypoLinegap: 90
OS2WinAscent: 0
OS2WinAOffset: 1
OS2WinDescent: 0
OS2WinDOffset: 1
HheadAscent: 0
HheadAOffset: 1
HheadDescent: 0
HheadDOffset: 1
MarkAttachClasses: 1
DEI: 91125
Encoding: ISO8859-1
UnicodeInterp: none
NameList: AGL For New Fonts
DisplaySize: -48
AntiAlias: 1
FitToEm: 0
WidthSeparation: 150
WinInfo: 133 19 11
BeginPrivate: 0
EndPrivate
BeginChars: 336 78

StartChar: glyph0
Encoding: 256 57952 0
Width: 848
VWidth: 72
Flags: W
HStem: 0.849609 72.8867<342.353 733.673> 363.98 73.7324<342.353 733.673> 727.19 73.7324<342.353 733.673> 823.119 61.5977<580.523 654.257 696.807 770.539>
VStem: 73 73.7324<0.849609 801> 189.204 73.7324<0.849609 801> 342.353 36.8672<0.849609 73.7363 363.98 437.713 727.19 800.923> 580.523 73.7334<823.119 884.717> 696.807 73.7324<73.7363 363.98 437.713 727.19 800.923 801 823.119 884.717> 696.807 36.8662<0.849609 73.7363 363.98 437.713 727.19 800.923>
LayerCount: 2
Fore
SplineSet
73 0.849609375 m 1xff
 73 801 l 1
 146.732421875 801 l 1
 146.732421875 0.849609375 l 1
 73 0.849609375 l 1xff
189.204101562 0.849609375 m 1
 189.204101562 801 l 1
 262.936523438 801 l 1
 262.936523438 0.849609375 l 1
 189.204101562 0.849609375 l 1
580.5234375 823.119140625 m 1
 580.5234375 884.716796875 l 1
 654.256835938 884.716796875 l 1
 654.256835938 823.119140625 l 1
 580.5234375 823.119140625 l 1
696.806640625 823.119140625 m 1xff80
 696.806640625 884.716796875 l 1
 770.5390625 884.716796875 l 1
 770.5390625 823.119140625 l 1
 696.806640625 823.119140625 l 1xff80
305.486328125 0.849609375 m 1
 305.486328125 801 l 1
 379.219726562 801 l 1
 379.219726562 0.849609375 l 1
 305.486328125 0.849609375 l 1
696.806640625 0.849609375 m 1xff40
 696.806640625 801 l 1
 770.5390625 801 l 1
 770.5390625 0.849609375 l 1xff80
 696.806640625 0.849609375 l 1xff40
342.352539062 437.712890625 m 1
 733.672851562 437.712890625 l 1
 733.672851562 363.98046875 l 1xff40
 342.352539062 363.98046875 l 1
 342.352539062 437.712890625 l 1
342.352539062 73.736328125 m 1
 733.672851562 73.736328125 l 1
 733.672851562 0.00390625 l 1
 342.352539062 0.00390625 l 1
 342.352539062 73.736328125 l 1
342.352539062 800.922851562 m 1
 733.672851562 800.922851562 l 1
 733.672851562 727.190429688 l 1
 342.352539062 727.190429688 l 1
 342.352539062 800.922851562 l 1
EndSplineSet
EndChar

StartChar: glyph1
Encoding: 257 57953 1
Width: 426
VWidth: 85
Flags: W
HStem: -0.125977 21G<45 155.598 274.952 348.686>
VStem: 118.732 73.7314<322.527 800.33> 274.952 73.7334<-0.125977 800.024>
LayerCount: 2
Fore
SplineSet
274.952148438 -0.1259765625 m 1
 274.952148438 800.024414062 l 1
 348.685546875 800.024414062 l 1
 348.685546875 -0.1259765625 l 1
 274.952148438 -0.1259765625 l 1
192.463867188 800.330078125 m 1
 192.463867188 561.467773438 l 2
 192.463867188 322.60546875 192.463867188 225.83203125 118.732421875 0.02734375 c 2
 45 0.02734375 l 1
 118.732421875 225.83203125 118.732421875 322.60546875 118.732421875 561.467773438 c 2
 118.732421875 800.330078125 l 1
 192.463867188 800.330078125 l 1
EndSplineSet
EndChar

StartChar: glyph2
Encoding: 258 57954 2
Width: 611
VWidth: 86
Flags: W
HStem: -0.789062 73.7324<105.866 534.052> 726.397 73.7324<69 497.186>
VStem: 69 73.7324<72.9434 436.997> 105.866 36.8662<0.0566406 72.9434> 460.319 73.7324<363.265 726.397 800.13 800.207> 460.319 36.8662<726.397 800.13>
LayerCount: 2
Fore
SplineSet
69 0.056640625 m 1xe0
 69 436.997070312 l 1
 142.732421875 436.997070312 l 1xe0
 142.732421875 0.056640625 l 1xd0
 69 0.056640625 l 1xe0
460.319335938 363.264648438 m 1xc8
 460.319335938 800.20703125 l 1
 534.051757812 800.20703125 l 1
 534.051757812 363.264648438 l 1
 460.319335938 363.264648438 l 1xc8
105.866210938 72.943359375 m 1xd8
 534.051757812 72.943359375 l 1
 534.051757812 -0.7890625 l 1
 105.866210938 -0.7890625 l 1
 105.866210938 72.943359375 l 1xd8
69 800.129882812 m 1xe4
 497.185546875 800.129882812 l 1
 497.185546875 726.397460938 l 1
 69 726.397460938 l 1
 69 800.129882812 l 1xe4
EndSplineSet
EndChar

StartChar: glyph3
Encoding: 259 57955 3
Width: 610
VWidth: 86
Flags: W
HStem: 0.0566406 72.8867<107.691 499.012> 181.238 73.7324<107.691 499.012> 363.188 73.7324<107.691 499.012>
VStem: 107.691 36.8662<0.0566406 72.9434 181.238 254.971 363.188 436.92> 462.146 36.8662<0.0566406 72.9434 181.238 254.971 363.188 436.92>
LayerCount: 2
Fore
SplineSet
70.8251953125 0.056640625 m 1
 70.8251953125 436.997070312 l 1
 144.557617188 436.997070312 l 1
 144.557617188 0.056640625 l 1
 70.8251953125 0.056640625 l 1
462.145507812 0.056640625 m 1
 462.145507812 436.997070312 l 1
 535.877929688 436.997070312 l 1
 535.877929688 0.056640625 l 1
 462.145507812 0.056640625 l 1
107.69140625 436.919921875 m 1
 499.01171875 436.919921875 l 1
 499.01171875 363.1875 l 1
 107.69140625 363.1875 l 1
 107.69140625 436.919921875 l 1
107.69140625 72.943359375 m 1
 499.01171875 72.943359375 l 1
 499.01171875 -0.7890625 l 1
 107.69140625 -0.7890625 l 1
 107.69140625 72.943359375 l 1
107.69140625 254.970703125 m 1
 499.01171875 254.970703125 l 1
 499.01171875 181.23828125 l 1
 107.69140625 181.23828125 l 1
 107.69140625 254.970703125 l 1
549.703125 800.20703125 m 1
 172.0546875 467.181640625 l 1
 57 467.181640625 l 1
 433.880859375 800.20703125 l 1
 549.703125 800.20703125 l 1
549.703125 466.875 m 1
 471.361328125 466.567382812 l 1
 471.361328125 466.567382812 364.44921875 633.462890625 471.361328125 799.822265625 c 2
 549.703125 800.129882812 l 1
 442.790039062 633.770507812 549.703125 466.875 549.703125 466.875 c 1
57 799.899414062 m 6
 135.341796875 800.20703125 l 1
 135.341796875 800.20703125 242.25390625 633.309570312 135.341796875 466.951171875 c 2
 57 466.64453125 l 1
 163.913085938 633.001953125 57 799.899414062 57 799.899414062 c 6
EndSplineSet
EndChar

StartChar: glyph4
Encoding: 260 57956 4
Width: 614
VWidth: 86
Flags: W
HStem: 0.0566406 72.8867<108.789 500.109> 363.265 73.7324<108.866 500.186> 726.474 73.7334<108.866 500.186>
VStem: 108.866 36.8662<0.0566406 72.9434 363.265 436.997 726.474 800.207> 463.319 36.8662<0.0566406 72.9434 363.265 436.997 726.474 800.207>
LayerCount: 2
Fore
SplineSet
72 0.056640625 m 1
 72 800.20703125 l 1
 145.732421875 800.20703125 l 1
 145.732421875 0.056640625 l 1
 72 0.056640625 l 1
463.319335938 0.056640625 m 1
 463.319335938 800.20703125 l 1
 537.051757812 800.20703125 l 1
 537.051757812 0.056640625 l 1
 463.319335938 0.056640625 l 1
108.866210938 436.997070312 m 1
 500.185546875 436.997070312 l 1
 500.185546875 363.264648438 l 1
 108.866210938 363.264648438 l 1
 108.866210938 436.997070312 l 1
108.7890625 72.943359375 m 1
 500.109375 72.943359375 l 1
 500.109375 -0.7890625 l 1
 108.7890625 -0.7890625 l 1
 108.7890625 72.943359375 l 1
108.866210938 800.20703125 m 1
 500.185546875 800.20703125 l 1
 500.185546875 726.473632812 l 1
 108.866210938 726.473632812 l 1
 108.866210938 800.20703125 l 1
EndSplineSet
EndChar

StartChar: glyph5
Encoding: 261 57957 5
Width: 739
VWidth: 86
Flags: W
HStem: 0.0566406 72.8867<233.597 624.917> 363.188 73.7324<233.597 624.917> 726.397 73.7324<233.597 624.917>
VStem: 72 73.7334<0.0566406 800.207> 233.597 36.8662<0.0566406 72.9434 363.188 436.92 726.397 800.13> 588.051 36.8662<0.0566406 72.9434 363.188 436.92 726.397 800.13>
LayerCount: 2
Fore
SplineSet
72 0.056640625 m 1
 72 800.20703125 l 1
 145.733398438 800.20703125 l 1
 145.733398438 0.056640625 l 1
 72 0.056640625 l 1
196.73046875 0.056640625 m 1
 196.73046875 800.20703125 l 1
 270.462890625 800.20703125 l 1
 270.462890625 0.056640625 l 1
 196.73046875 0.056640625 l 1
588.05078125 0.056640625 m 1
 588.05078125 800.20703125 l 1
 661.783203125 800.20703125 l 1
 661.783203125 0.056640625 l 1
 588.05078125 0.056640625 l 1
233.596679688 436.919921875 m 1
 624.916992188 436.919921875 l 1
 624.916992188 363.1875 l 1
 233.596679688 363.1875 l 1
 233.596679688 436.919921875 l 1
233.596679688 72.943359375 m 1
 624.916992188 72.943359375 l 1
 624.916992188 -0.7890625 l 1
 233.596679688 -0.7890625 l 1
 233.596679688 72.943359375 l 1
233.596679688 800.129882812 m 1
 624.916992188 800.129882812 l 1
 624.916992188 726.397460938 l 1
 233.596679688 726.397460938 l 1
 233.596679688 800.129882812 l 1
EndSplineSet
EndChar

StartChar: glyph6
Encoding: 262 57958 6
Width: 821
VWidth: 85
Flags: W
HStem: -0.125977 21G<50 142.335 644.285 741.7> 561.085 79.876<694.39 735.864> 726.598 73.7324<609.981 655.297>
LayerCount: 2
Fore
SplineSet
538.4765625 800.024414062 m 1
 132.1796875 -0.1259765625 l 1
 50 -0.1259765625 l 1
 455.52734375 800.024414062 l 1
 538.4765625 800.024414062 l 1
538.4765625 800.024414062 m 1
 132.1796875 -0.1259765625 l 1
 50 -0.1259765625 l 1
 455.52734375 800.024414062 l 1
 538.4765625 800.024414062 l 1
50 800.024414062 m 1
 132.948242188 800.024414062 l 1
 741.700195312 -0.1259765625 l 1
 659.520507812 -0.1259765625 l 1
 50 800.024414062 l 1
700.610351562 481.591796875 m 1
 618.428710938 481.591796875 l 1
 456.373046875 800.330078125 l 1
 539.321289062 800.330078125 l 1
 700.610351562 481.591796875 l 1
655.296875 800.330078125 m 1
 692.9296875 726.59765625 l 1
 609.981445312 726.59765625 l 1
 572.346679688 800.330078125 l 1
 655.296875 800.330078125 l 1
776.5703125 561.084960938 m 1
 694.389648438 561.084960938 l 1
 653.682617188 640.9609375 l 1
 735.864257812 640.9609375 l 1
 776.5703125 561.084960938 l 1
EndSplineSet
EndChar

StartChar: glyph7
Encoding: 263 57959 7
Width: 913
VWidth: 85
Flags: W
HStem: 0.00292969 73.7324<573.04 723.169> 363.288 73.7324<209.705 360.465>
VStem: 66 73.7324<506.482 800.306> 429.286 73.7334<143.197 417.837 581.413 800.306> 792.573 73.7324<143.197 218.127>
LayerCount: 2
Fore
SplineSet
866.305664062 218.126953125 m 1
 866.305664062 97.5439453125 768.763671875 0.0029296875 648.180664062 0.0029296875 c 0
 527.595703125 0.0029296875 429.286132812 97.5439453125 429.286132812 218.126953125 c 2
 429.286132812 800.305664062 l 1
 503.01953125 800.305664062 l 1
 503.01953125 218.126953125 l 2
 503.01953125 138.250976562 568.302734375 73.7353515625 648.180664062 73.7353515625 c 0
 728.056640625 73.7353515625 792.573242188 138.250976562 792.573242188 218.126953125 c 1
 866.305664062 218.126953125 l 1
503.01953125 581.413085938 m 1
 503.01953125 516.129882812 474.6015625 457.7578125 429.2734375 417.836914062 c 0
 390.884765625 384.025390625 340.193359375 363.288085938 284.688476562 363.288085938 c 0
 164.310546875 363.288085938 66 460.830078125 66 581.413085938 c 2
 66 800.305664062 l 1
 139.732421875 800.305664062 l 1
 139.732421875 581.413085938 l 2
 139.732421875 501.536132812 205.017578125 437.020507812 284.893554688 437.020507812 c 0
 364.771484375 437.020507812 429.286132812 501.536132812 429.286132812 581.413085938 c 1
 503.01953125 581.413085938 l 1
EndSplineSet
EndChar

StartChar: glyph8
Encoding: 264 57960 8
Width: 657
VWidth: 85
Flags: W
HStem: 0.00292969 21G<52 149.547 518.205 596.546>
LayerCount: 2
Fore
SplineSet
599.618164062 800.305664062 m 1
 594.240234375 792.626953125 l 1
 594.240234375 791.858398438 l 1
 480.5703125 594.469726562 l 1
 138.022460938 0.0029296875 l 1
 52 0.0029296875 l 1
 57.3779296875 9.21875 l 1
 171.047851562 206.607421875 l 1
 514.364257812 800.305664062 l 1
 599.618164062 800.305664062 l 1
596.545898438 0.771484375 m 1
 518.205078125 0.0029296875 l 1
 518.205078125 0.0029296875 445.239257812 274.194335938 480.256835938 595.075195312 c 0
 487.482421875 661.291015625 499.770507812 730.4140625 518.205078125 799.5390625 c 2
 596.545898438 800.305664062 l 1
 595.77734375 798.001953125 595.008789062 794.930664062 594.240234375 792.626953125 c 2
 594.240234375 791.858398438 l 2
 491.323242188 395.545898438 596.545898438 0.771484375 596.545898438 0.771484375 c 1
54.7666015625 799.231445312 m 2
 133.10546875 799.922851562 l 1
 133.10546875 799.922851562 240.018554688 399.616210938 133.10546875 0.693359375 c 1
 54.7666015625 0.0029296875 l 1
 161.676757812 398.924804688 54.7666015625 799.231445312 54.7666015625 799.231445312 c 2
EndSplineSet
EndChar

StartChar: glyph9
Encoding: 265 57961 9
Width: 655
VWidth: 60
Flags: W
LayerCount: 2
Fore
SplineSet
413.516601562 934.118164062 m 1
 346.005859375 792.719726562 l 1
 278.495117188 792.719726562 l 1
 323.500976562 934.118164062 l 1
 413.516601562 934.118164062 l 1
598.615234375 775.0546875 m 1
 593.163085938 767.375 l 1
 593.163085938 766.606445312 l 1
 479.569335938 569.217773438 l 1
 137.01953125 -25.2490234375 l 1
 51 -25.2490234375 l 1
 56.375 -16.0322265625 l 1
 170.045898438 181.356445312 l 1
 513.362304688 775.0546875 l 1
 598.615234375 775.0546875 l 1
595.543945312 -24.48046875 m 1
 517.202148438 -25.2490234375 l 1
 517.202148438 -25.2490234375 444.23828125 248.943359375 479.254882812 569.819335938 c 0
 486.48046875 636.0390625 498.770507812 705.163085938 517.202148438 774.288085938 c 2
 595.543945312 775.0546875 l 1
 594.775390625 772.750976562 594.008789062 769.678710938 593.240234375 767.375 c 2
 593.240234375 766.606445312 l 2
 490.321289062 370.293945312 595.543945312 -24.48046875 595.543945312 -24.48046875 c 1
53.763671875 773.98046875 m 2
 132.10546875 774.670898438 l 1
 132.10546875 774.670898438 239.017578125 374.365234375 132.10546875 -24.5576171875 c 1
 53.763671875 -25.2490234375 l 1
 160.676757812 373.673828125 53.763671875 773.98046875 53.763671875 773.98046875 c 2
EndSplineSet
EndChar

StartChar: glyph10
Encoding: 266 57962 10
Width: 612
VWidth: 86
Flags: W
HStem: -0.789062 73.7324<106.867 535.053> 289.532 73.7324<106.867 498.187> 436.92 73.7334<106.867 498.187> 726.397 73.7324<70 498.187>
VStem: 106.867 36.8662<0.0566406 72.9434 289.532 363.265 436.92 510.653> 461.32 36.8662<289.532 363.265 436.92 510.653 726.397 800.13>
LayerCount: 2
Fore
SplineSet
70 0.056640625 m 1
 70 510.729492188 l 1
 143.733398438 510.729492188 l 1
 143.733398438 0.056640625 l 1
 70 0.056640625 l 1
461.3203125 289.532226562 m 1
 461.3203125 800.20703125 l 1
 535.052734375 800.20703125 l 1
 535.052734375 289.532226562 l 1
 461.3203125 289.532226562 l 1
106.8671875 363.264648438 m 1
 498.186523438 363.264648438 l 1
 498.186523438 289.532226562 l 1
 106.8671875 289.532226562 l 1
 106.8671875 363.264648438 l 1
106.8671875 510.653320312 m 1
 498.186523438 510.653320312 l 1
 498.186523438 436.919921875 l 1
 106.8671875 436.919921875 l 1
 106.8671875 510.653320312 l 1
106.8671875 72.943359375 m 1
 535.052734375 72.943359375 l 1
 535.052734375 -0.7890625 l 1
 106.8671875 -0.7890625 l 1
 106.8671875 72.943359375 l 1
70 800.129882812 m 1
 498.186523438 800.129882812 l 1
 498.186523438 726.397460938 l 1
 70 726.397460938 l 1
 70 800.129882812 l 1
EndSplineSet
EndChar

StartChar: glyph11
Encoding: 267 57963 11
Width: 922
VWidth: 85
Flags: W
HStem: 0.0273438 73.7314<572.269 722.397> 589.118 65.2842<746.152 798.66>
VStem: 65.2305 73.7324<506.506 800.33> 428.517 73.7314<143.221 417.861 581.438 800.33> 679.437 65.2842<517.962 587.706> 791.802 73.7324<143.221 218.151> 800.02 65.2842<518.245 587.723>
LayerCount: 2
Fore
SplineSet
865.534179688 218.151367188 m 1xfc
 865.534179688 97.568359375 767.9921875 0.02734375 647.409179688 0.02734375 c 0
 526.826171875 0.02734375 428.516601562 97.568359375 428.516601562 218.151367188 c 2
 428.516601562 800.330078125 l 1
 502.248046875 800.330078125 l 1
 502.248046875 218.151367188 l 2
 502.248046875 138.275390625 567.53125 73.7587890625 647.409179688 73.7587890625 c 0
 727.28515625 73.7587890625 791.801757812 138.275390625 791.801757812 218.151367188 c 1
 865.534179688 218.151367188 l 1xfc
502.248046875 581.4375 m 1
 502.248046875 516.154296875 473.830078125 457.782226562 428.501953125 417.861328125 c 0
 390.11328125 384.049804688 339.421875 363.3125 283.91796875 363.3125 c 0
 163.5390625 363.3125 65.23046875 460.854492188 65.23046875 581.4375 c 2
 65.23046875 800.330078125 l 1
 138.962890625 800.330078125 l 1
 138.962890625 581.4375 l 2
 138.962890625 501.560546875 204.24609375 437.044921875 284.122070312 437.044921875 c 0
 364 437.044921875 428.516601562 501.560546875 428.516601562 581.4375 c 1
 502.248046875 581.4375 l 1
399.25390625 800.024414062 m 1
 149.25390625 -0.1259765625 l 1
 65.23046875 -0.1259765625 l 1
 315.229492188 800.024414062 l 1
 399.25390625 800.024414062 l 1
796.470703125 445.048828125 m 0
 729.12890625 363.3125 334.046875 96.0322265625 177.133789062 0.02734375 c 2
 65 0.02734375 l 1
 444.106445312 231.515625 792.33984375 541.499023438 792.33984375 541.499023438 c 1
 792.33984375 541.499023438 843.03125 501.560546875 796.470703125 445.048828125 c 0
772.369140625 654.40234375 m 0
 823.829101562 654.40234375 865.303710938 612.927734375 865.303710938 561.595703125 c 0xfa
 865.303710938 538.426757812 856.85546875 517.689453125 843.180664062 501.282226562 c 0
 841.494140625 499.256835938 839.958984375 497.720703125 836.776367188 494.40625 c 0
 821.525390625 478.51953125 798.483398438 468.53515625 772.000976562 468.53515625 c 0
 761.618164062 468.53515625 750.865234375 470.0703125 741.377929688 473.447265625 c 0
 705.549804688 486.200195312 679.436523438 520.76171875 679.436523438 561.538085938 c 0
 679.436523438 612.927734375 720.911132812 654.40234375 772.369140625 654.40234375 c 0
794.83984375 545.346679688 m 0
 797.715820312 549.948242188 800.01953125 555.32421875 800.01953125 561.823242188 c 0
 800.01953125 576.830078125 787.73046875 589.118164062 772.369140625 589.118164062 c 0
 757.008789062 589.118164062 744.720703125 576.830078125 744.720703125 561.469726562 c 0
 744.720703125 546.107421875 757.008789062 533.818359375 772.369140625 533.818359375 c 0
 780.049804688 533.818359375 786.962890625 536.891601562 791.325195312 541.25390625 c 0
 793.106445312 543.036132812 793.875 543.802734375 794.83984375 545.346679688 c 0
EndSplineSet
EndChar

StartChar: glyph12
Encoding: 268 57964 12
Width: 737
VWidth: 86
Flags: W
HStem: -0.789062 73.7324<62.0771 667.683> 363.495 73.7324<62 667.605> 652.665 73.7324<62 667.605>
VStem: 327.975 73.7334<0.0566406 800.207>
LayerCount: 2
Fore
SplineSet
327.974609375 0.056640625 m 1
 327.974609375 800.20703125 l 1
 401.708007812 800.20703125 l 1
 401.708007812 0.056640625 l 1
 327.974609375 0.056640625 l 1
62 437.227539062 m 1
 667.60546875 437.227539062 l 1
 667.60546875 363.495117188 l 1
 62 363.495117188 l 1
 62 437.227539062 l 1
62.0771484375 72.943359375 m 1
 667.682617188 72.943359375 l 1
 667.682617188 -0.7890625 l 1
 62.0771484375 -0.7890625 l 1
 62.0771484375 72.943359375 l 1
62 726.397460938 m 1
 667.60546875 726.397460938 l 1
 667.60546875 652.665039062 l 1
 62 652.665039062 l 1
 62 726.397460938 l 1
EndSplineSet
EndChar

StartChar: glyph13
Encoding: 269 57965 13
Width: 727
VWidth: 85
Flags: W
HStem: -0.0771484 21G<57 179.01 585.482 662.45> 726.263 73.7324<57 662.604>
LayerCount: 2
Fore
SplineSet
263.680664062 800.072265625 m 1
 130.732421875 -0.0771484375 l 1
 57 -0.0771484375 l 1
 189.948242188 800.072265625 l 1
 263.680664062 800.072265625 l 1
662.450195312 0.0751953125 m 1
 588.794921875 0.0751953125 l 1
 495.78515625 561.516601562 l 1
 569.592773438 561.516601562 l 1
 662.450195312 0.0751953125 l 1
57 799.995117188 m 1
 662.603515625 799.995117188 l 1
 662.603515625 726.262695312 l 1
 57 726.262695312 l 1
 57 799.995117188 l 1
571.052734375 182.333007812 m 1
 130.732421875 -0.0771484375 l 1
 130.732421875 72.80859375 l 1
 571.052734375 255.220703125 l 1
 571.052734375 182.333007812 l 1
EndSplineSet
EndChar

StartChar: glyph14
Encoding: 270 57966 14
Width: 727
VWidth: 60
Flags: W
HStem: 700.963 73.7324<56 661.604>
LayerCount: 2
Fore
SplineSet
262.681640625 774.772460938 m 1
 129.733398438 -25.376953125 l 1
 56 -25.376953125 l 1
 188.950195312 774.772460938 l 1
 262.681640625 774.772460938 l 1
661.528320312 -25.224609375 m 1
 587.794921875 -25.224609375 l 1
 494.862304688 536.216796875 l 1
 568.594726562 536.216796875 l 1
 661.528320312 -25.224609375 l 1
56 774.6953125 m 1
 661.604492188 774.6953125 l 1
 661.604492188 700.962890625 l 1
 56 700.962890625 l 1
 56 774.6953125 l 1
570.053710938 157.033203125 m 1
 129.733398438 -25.376953125 l 1
 129.733398438 47.5087890625 l 1
 570.053710938 229.920898438 l 1
 570.053710938 157.033203125 l 1
426.352539062 934.141601562 m 1
 358.841796875 792.744140625 l 1
 291.329101562 792.744140625 l 1
 336.336914062 934.141601562 l 1
 426.352539062 934.141601562 l 1
EndSplineSet
EndChar

StartChar: glyph15
Encoding: 271 57967 15
Width: 687
VWidth: 86
Flags: W
HStem: -0.789062 73.7324<108.789 616.392> 726.474 73.7334<108.866 616.469>
VStem: 108.866 36.8662<0.0566406 72.9434 726.474 800.207>
LayerCount: 2
Fore
SplineSet
72 0.056640625 m 1
 72 800.20703125 l 1
 145.732421875 800.20703125 l 1
 145.732421875 0.056640625 l 1
 72 0.056640625 l 1
108.7890625 72.943359375 m 1
 616.391601562 72.943359375 l 1
 616.391601562 -0.7890625 l 1
 108.7890625 -0.7890625 l 1
 108.7890625 72.943359375 l 1
108.866210938 800.20703125 m 1
 616.46875 800.20703125 l 1
 616.46875 726.473632812 l 1
 108.866210938 726.473632812 l 1
 108.866210938 800.20703125 l 1
EndSplineSet
EndChar

StartChar: glyph16
Encoding: 272 57968 16
Width: 669
VWidth: 86
Flags: W
HStem: -0.853516 73.7314<88.8662 596.468> 654.598 73.7324<52 596.468>
VStem: 88.8662 73.7324<72.8779 800.219> 522.735 73.7324<577.101 728.405>
LayerCount: 2
Fore
SplineSet
88.8662109375 0.0693359375 m 1
 88.8662109375 800.21875 l 1
 162.598632812 800.21875 l 1
 162.598632812 0.0693359375 l 1
 88.8662109375 0.0693359375 l 1
522.735351562 577.100585938 m 1
 522.735351562 728.405273438 l 1
 596.467773438 728.405273438 l 1
 596.467773438 577.100585938 l 1
 522.735351562 577.100585938 l 1
88.8662109375 72.8779296875 m 1
 596.467773438 72.8779296875 l 1
 596.467773438 -0.853515625 l 1
 88.8662109375 -0.853515625 l 1
 88.8662109375 72.8779296875 l 1
52 728.330078125 m 1
 596.467773438 728.330078125 l 1
 596.467773438 654.59765625 l 1
 52 654.59765625 l 1
 52 728.330078125 l 1
EndSplineSet
EndChar

StartChar: glyph17
Encoding: 273 57969 17
Width: 713
VWidth: 86
Flags: W
HStem: -0.789062 21G<52 248.421 575.356 657.297> 249.44 73.7334<52 657.604> 363.265 72.8887<159.142 550.462> 544.447 73.7324<159.142 550.462> 726.397 73.7324<159.142 550.462>
VStem: 159.142 36.8662<363.265 436.153 544.447 618.18 726.397 800.13> 513.596 36.8662<363.265 436.153 544.447 618.18 726.397 800.13>
LayerCount: 2
Fore
SplineSet
122.275390625 363.264648438 m 1
 122.275390625 800.20703125 l 1
 196.0078125 800.20703125 l 1
 196.0078125 363.264648438 l 1
 122.275390625 363.264648438 l 1
513.595703125 363.264648438 m 1
 513.595703125 800.20703125 l 1
 587.328125 800.20703125 l 1
 587.328125 363.264648438 l 1
 513.595703125 363.264648438 l 1
159.141601562 800.129882812 m 1
 550.461914062 800.129882812 l 1
 550.461914062 726.397460938 l 1
 159.141601562 726.397460938 l 1
 159.141601562 800.129882812 l 1
159.141601562 436.153320312 m 1
 550.461914062 436.153320312 l 1
 550.461914062 362.420898438 l 1
 159.141601562 362.420898438 l 1
 159.141601562 436.153320312 l 1
159.141601562 618.1796875 m 1
 550.461914062 618.1796875 l 1
 550.461914062 544.447265625 l 1
 159.141601562 544.447265625 l 1
 159.141601562 618.1796875 l 1
258.680664062 323.173828125 m 1
 125.732421875 -0.7890625 l 1
 52 -0.7890625 l 1
 184.948242188 323.173828125 l 1
 258.680664062 323.173828125 l 1
657.296875 -0.55859375 m 1
 583.564453125 -0.55859375 l 1
 499.080078125 205.278320312 l 1
 572.811523438 205.278320312 l 1
 657.296875 -0.55859375 l 1
52 323.173828125 m 1
 657.603515625 323.173828125 l 1
 657.603515625 249.440429688 l 1
 52 249.440429688 l 1
 52 323.173828125 l 1
587.328125 72.943359375 m 1
 122.275390625 -0.7890625 l 1
 122.275390625 72.943359375 l 1
 587.328125 146.67578125 l 1
 587.328125 72.943359375 l 1
EndSplineSet
EndChar

StartChar: glyph18
Encoding: 274 57970 18
Width: 691
VWidth: 85
Flags: W
HStem: -0.0771484 21G<179.962 287.472 544.169 641.157> 726.263 73.7324<61.4355 567.501>
VStem: 213.739 73.7324<-0.0771484 436.863>
LayerCount: 2
Fore
SplineSet
625.642578125 800.072265625 m 1
 382.479492188 479.719726562 l 1
 287.471679688 479.719726562 l 1
 530.634765625 800.072265625 l 1
 625.642578125 800.072265625 l 1
61.435546875 799.995117188 m 1
 567.500976562 799.995117188 l 1
 567.500976562 726.262695312 l 1
 61.435546875 726.262695312 l 1
 61.435546875 799.995117188 l 1
213.739257812 -0.0771484375 m 1
 213.739257812 436.86328125 l 1
 287.471679688 436.86328125 l 1
 287.471679688 -0.0771484375 l 1
 213.739257812 -0.0771484375 l 1
472.033203125 436.86328125 m 1
 641.157226562 -0.0771484375 l 1
 551.91015625 -0.0771484375 l 1
 382.786132812 436.86328125 l 1
 472.033203125 436.86328125 l 1
135.16796875 175.573242188 m 1
 287.471679688 -0.0771484375 l 1
 197.303710938 -0.0771484375 l 1
 45 175.573242188 l 1
 135.16796875 175.573242188 l 1
EndSplineSet
EndChar

StartChar: glyph19
Encoding: 275 57971 19
Width: 847
VWidth: 72
Flags: W
HStem: -13.2451 72.8867<341.353 732.673> 713.171 73.7344<341.353 732.673> 809.101 61.5967<579.523 653.257 695.807 769.539>
VStem: 72 73.7324<-13.2451 786.905> 188.204 73.7324<-13.2451 786.905> 341.353 36.8672<-13.2451 59.6416 713.171 786.905> 579.523 73.7334<809.101 870.697> 695.807 73.7324<59.6416 713.171 809.101 870.697> 695.807 36.8662<-13.2451 59.6416 713.171 786.905>
LayerCount: 2
Fore
SplineSet
72 -13.2451171875 m 1xfe
 72 786.905273438 l 1
 145.732421875 786.905273438 l 1
 145.732421875 -13.2451171875 l 1
 72 -13.2451171875 l 1xfe
188.204101562 -13.2451171875 m 1
 188.204101562 786.905273438 l 1
 261.936523438 786.905273438 l 1
 261.936523438 -13.2451171875 l 1
 188.204101562 -13.2451171875 l 1
579.5234375 809.100585938 m 1
 579.5234375 870.697265625 l 1
 653.256835938 870.697265625 l 1
 653.256835938 809.100585938 l 1
 579.5234375 809.100585938 l 1
695.806640625 809.100585938 m 1xff
 695.806640625 870.697265625 l 1
 769.5390625 870.697265625 l 1
 769.5390625 809.100585938 l 1
 695.806640625 809.100585938 l 1xff
304.486328125 -13.2451171875 m 1
 304.486328125 786.905273438 l 1
 378.219726562 786.905273438 l 1
 378.219726562 -13.2451171875 l 1
 304.486328125 -13.2451171875 l 1
695.806640625 -13.2451171875 m 1xfe80
 695.806640625 786.905273438 l 1xfe80
 769.5390625 786.905273438 l 1
 769.5390625 -13.2451171875 l 1xff
 695.806640625 -13.2451171875 l 1xfe80
341.352539062 59.6416015625 m 1
 732.672851562 59.6416015625 l 1
 732.672851562 -14.0908203125 l 1
 341.352539062 -14.0908203125 l 1
 341.352539062 59.6416015625 l 1
341.352539062 786.905273438 m 1
 732.672851562 786.905273438 l 1
 732.672851562 713.170898438 l 1
 341.352539062 713.170898438 l 1
 341.352539062 786.905273438 l 1
EndSplineSet
EndChar

StartChar: glyph20
Encoding: 276 57972 20
Width: 911
VWidth: 85
Flags: W
HStem: 0.0556641 73.7324<571.039 721.166> 363.341 73.7324<207.703 358.463>
VStem: 64 73.7324<506.535 800.358> 243.338 73.7324<440.335 800.358> 427.285 73.7324<143.249 417.89 581.466 800.358> 790.57 73.7324<143.249 218.18>
LayerCount: 2
Fore
SplineSet
317.0703125 800.358398438 m 1
 317.0703125 561.49609375 l 2
 317.0703125 322.634765625 317.0703125 225.861328125 243.337890625 0.0556640625 c 2
 169.60546875 0.0556640625 l 1
 243.337890625 225.861328125 243.337890625 322.634765625 243.337890625 561.49609375 c 2
 243.337890625 800.358398438 l 1
 317.0703125 800.358398438 l 1
864.302734375 218.1796875 m 1
 864.302734375 97.5966796875 766.76171875 0.0556640625 646.178710938 0.0556640625 c 0
 525.595703125 0.0556640625 427.28515625 97.5966796875 427.28515625 218.1796875 c 2
 427.28515625 800.358398438 l 1
 501.017578125 800.358398438 l 1
 501.017578125 218.1796875 l 2
 501.017578125 138.303710938 566.301757812 73.7880859375 646.178710938 73.7880859375 c 0
 726.0546875 73.7880859375 790.5703125 138.303710938 790.5703125 218.1796875 c 2
 864.302734375 218.1796875 l 1
501.017578125 581.465820312 m 1
 501.017578125 516.181640625 472.599609375 457.810546875 427.272460938 417.889648438 c 0
 388.8828125 384.078125 338.19140625 363.340820312 282.686523438 363.340820312 c 0
 162.30859375 363.340820312 64 460.8828125 64 581.465820312 c 2
 64 800.358398438 l 1
 137.732421875 800.358398438 l 1
 137.732421875 581.465820312 l 2
 137.732421875 501.588867188 203.014648438 437.073242188 282.891601562 437.073242188 c 0
 362.76953125 437.073242188 427.28515625 501.588867188 427.28515625 581.465820312 c 2
 501.017578125 581.465820312 l 1
EndSplineSet
EndChar

StartChar: glyph21
Encoding: 277 57973 21
Width: 611
VWidth: 86
Flags: W
HStem: -0.789062 73.7324<105.866 534.053> 726.474 73.7334<69.0771 497.263>
VStem: 69 73.7334<72.9434 436.997> 105.866 36.8672<0.0566406 72.9434> 460.32 73.7324<363.265 726.474> 460.32 36.9424<726.474 800.207>
LayerCount: 2
Fore
SplineSet
69 0.056640625 m 1xe0
 69 436.997070312 l 1
 142.733398438 436.997070312 l 1xe0
 142.733398438 0.056640625 l 1xd0
 69 0.056640625 l 1xe0
460.3203125 363.264648438 m 1xc8
 460.3203125 800.20703125 l 1xc4
 534.052734375 800.20703125 l 1
 534.052734375 363.264648438 l 1
 460.3203125 363.264648438 l 1xc8
105.866210938 72.943359375 m 1xd8
 534.052734375 72.943359375 l 1
 534.052734375 -0.7890625 l 1
 105.866210938 -0.7890625 l 1
 105.866210938 72.943359375 l 1xd8
69.0771484375 800.20703125 m 1
 497.262695312 800.20703125 l 1
 497.262695312 726.473632812 l 1xc4
 69.0771484375 726.473632812 l 1
 69.0771484375 800.20703125 l 1
EndSplineSet
EndChar

StartChar: glyph22
Encoding: 278 57974 22
Width: 610
VWidth: 60
Flags: W
HStem: -25.2676 72.9639<107.614 498.935> 155.914 73.7324<107.691 499.011> 337.94 73.7324<107.691 499.011>
VStem: 107.614 36.9434<-25.2676 47.6963 155.914 229.646 337.94 411.673> 462.145 36.8662<-25.2676 47.6963 155.914 229.646 337.94 411.673>
LayerCount: 2
Fore
SplineSet
70.8251953125 -25.267578125 m 1
 70.8251953125 411.672851562 l 1
 144.557617188 411.672851562 l 1
 144.557617188 -25.267578125 l 1
 70.8251953125 -25.267578125 l 1
462.14453125 -25.267578125 m 1
 462.14453125 411.672851562 l 1
 535.876953125 411.672851562 l 1
 535.876953125 -25.267578125 l 1
 462.14453125 -25.267578125 l 1
107.69140625 411.672851562 m 1
 499.010742188 411.672851562 l 1
 499.010742188 337.940429688 l 1
 107.69140625 337.940429688 l 1
 107.69140625 411.672851562 l 1
107.614257812 47.6962890625 m 1
 498.934570312 47.6962890625 l 1
 498.934570312 -26.0361328125 l 1
 107.614257812 -26.0361328125 l 1
 107.614257812 47.6962890625 l 1
107.69140625 229.646484375 m 1
 499.010742188 229.646484375 l 1
 499.010742188 155.9140625 l 1
 107.69140625 155.9140625 l 1
 107.69140625 229.646484375 l 1
549.702148438 774.8828125 m 1
 171.977539062 441.934570312 l 1
 57 441.934570312 l 1
 433.803710938 774.8828125 l 1
 549.702148438 774.8828125 l 1
549.702148438 441.626953125 m 1
 471.360351562 441.3203125 l 1
 471.360351562 441.3203125 364.44921875 608.215820312 471.360351562 774.575195312 c 2
 549.702148438 774.8828125 l 1
 442.791015625 608.5234375 549.702148438 441.626953125 549.702148438 441.626953125 c 1
57 774.575195312 m 2
 135.341796875 774.8828125 l 1
 135.341796875 774.8828125 242.252929688 607.985351562 135.341796875 441.626953125 c 2
 57 441.3203125 l 1
 163.913085938 607.677734375 57 774.575195312 57 774.575195312 c 2
402.544921875 934.328125 m 1
 335.109375 792.931640625 l 1
 267.598632812 792.931640625 l 1
 312.606445312 934.328125 l 1
 402.544921875 934.328125 l 1
EndSplineSet
EndChar

StartChar: glyph23
Encoding: 279 57975 23
Width: 614
VWidth: 86
Flags: W
HStem: 0.0566406 72.8867<108.866 500.187> 363.265 73.7324<108.866 500.187> 726.474 73.7334<108.866 500.187>
VStem: 108.866 36.8662<0.0566406 72.9434 363.265 436.997 726.474 800.207> 463.32 36.8662<0.0566406 72.9434 363.265 436.997 726.474 800.207>
LayerCount: 2
Fore
SplineSet
72 0.056640625 m 1
 72 800.20703125 l 1
 145.732421875 800.20703125 l 1
 145.732421875 0.056640625 l 1
 72 0.056640625 l 1
463.3203125 0.056640625 m 1
 463.3203125 800.20703125 l 1
 537.052734375 800.20703125 l 1
 537.052734375 0.056640625 l 1
 463.3203125 0.056640625 l 1
108.866210938 436.997070312 m 1
 500.186523438 436.997070312 l 1
 500.186523438 363.264648438 l 1
 108.866210938 363.264648438 l 1
 108.866210938 436.997070312 l 1
108.866210938 72.943359375 m 1
 500.186523438 72.943359375 l 1
 500.186523438 -0.7890625 l 1
 108.866210938 -0.7890625 l 1
 108.866210938 72.943359375 l 1
108.866210938 800.20703125 m 1
 500.186523438 800.20703125 l 1
 500.186523438 726.473632812 l 1
 108.866210938 726.473632812 l 1
 108.866210938 800.20703125 l 1
EndSplineSet
EndChar

StartChar: glyph24
Encoding: 280 57976 24
Width: 739
VWidth: 86
Flags: W
HStem: 0.0439453 72.9648<233.598 624.917> 726.461 73.7334<233.675 624.994>
VStem: 72 73.7324<0.0439453 800.194> 233.675 36.8662<0.0439453 73.0088 726.461 800.194> 588.128 36.8662<0.0439453 73.0088 726.461 800.194>
LayerCount: 2
Fore
SplineSet
72 0.0439453125 m 1
 72 800.194335938 l 1
 145.732421875 800.194335938 l 1
 145.732421875 0.0439453125 l 1
 72 0.0439453125 l 1
196.80859375 0.0439453125 m 1
 196.80859375 800.194335938 l 1
 270.541015625 800.194335938 l 1
 270.541015625 0.0439453125 l 1
 196.80859375 0.0439453125 l 1
588.127929688 0.0439453125 m 1
 588.127929688 800.194335938 l 1
 661.860351562 800.194335938 l 1
 661.860351562 0.0439453125 l 1
 588.127929688 0.0439453125 l 1
233.59765625 73.0087890625 m 1
 624.916992188 73.0087890625 l 1
 624.916992188 -0.7236328125 l 1
 233.59765625 -0.7236328125 l 1
 233.59765625 73.0087890625 l 1
233.674804688 800.194335938 m 1
 624.994140625 800.194335938 l 1
 624.994140625 726.4609375 l 1
 233.674804688 726.4609375 l 1
 233.674804688 800.194335938 l 1
EndSplineSet
EndChar

StartChar: glyph25
Encoding: 281 57977 25
Width: 821
VWidth: 86
InSpiro: 1
Flags: W
HStem: -0.0410156 72.9639<115.668 680.566> 561.247 79.877<694.392 735.866> 726.761 73.7324<609.983 655.298>
LayerCount: 2
Fore
SplineSet
538.477539062 800.109375 m 1
 132.181640625 -0.041015625 l 1
 50 -0.041015625 l 1
 455.529296875 800.109375 l 1
 538.477539062 800.109375 l 1
  Spiro
    538.478 800.11 v
    132.182 -0.0401911 v
    50.0003 -0.0401911 v
    455.529 800.11 v
    0 0 z
  EndSpiro
538.477539062 800.109375 m 1
 132.181640625 -0.041015625 l 1
 50 -0.041015625 l 1
 455.529296875 800.109375 l 1
 538.477539062 800.109375 l 1
  Spiro
    538.478 800.11 v
    132.182 -0.0401911 v
    50.0003 -0.0401911 v
    455.529 800.11 v
    0 0 z
  EndSpiro
50 800.109375 m 1
 132.950195312 800.109375 l 1
 741.703125 -0.041015625 l 1
 659.522460938 -0.041015625 l 1
 50 800.109375 l 1
  Spiro
    50.0003 800.11 v
    132.95 800.11 v
    741.703 -0.0401911 v
    659.523 -0.0401911 v
    0 0 z
  EndSpiro
700.612304688 481.75390625 m 1
 618.431640625 481.75390625 l 1
 456.373046875 800.493164062 l 1
 539.323242188 800.493164062 l 1
 700.612304688 481.75390625 l 1
  Spiro
    700.613 481.755 v
    618.431 481.755 v
    456.374 800.494 v
    539.323 800.494 v
    0 0 z
  EndSpiro
655.297851562 800.493164062 m 1
 692.931640625 726.760742188 l 1
 609.983398438 726.760742188 l 1
 572.348632812 800.493164062 l 1
 655.297851562 800.493164062 l 1
  Spiro
    655.297 800.494 v
    692.932 726.762 v
    609.984 726.762 v
    572.349 800.494 v
    0 0 z
  EndSpiro
776.573242188 561.247070312 m 1
 694.391601562 561.247070312 l 1
 653.684570312 641.124023438 l 1
 735.866210938 641.124023438 l 1
 776.573242188 561.247070312 l 1
  Spiro
    776.573 561.248 v
    694.392 561.248 v
    653.685 641.124 v
    735.867 641.124 v
    0 0 z
  EndSpiro
115.66796875 -0.65625 m 1
 115.66796875 72.9228515625 l 1
 680.56640625 72.9228515625 l 1
 680.56640625 -0.65625 l 1
 115.66796875 -0.65625 l 1
  Spiro
    115.668 -0.655461 v
    115.668 72.9236 v
    680.566 72.9236 v
    680.566 -0.655461 v
    0 0 z
  EndSpiro
EndSplineSet
EndChar

StartChar: glyph26
Encoding: 282 57978 26
Width: 912
VWidth: 85
Flags: W
HStem: 0.0556641 73.7324<573.04 723.169> 363.341 73.7324<209.705 360.465>
VStem: 66 73.7324<506.535 800.358> 429.286 73.7324<143.249 417.89 581.466 800.358> 792.573 73.7324<143.249 218.18>
LayerCount: 2
Fore
SplineSet
866.305664062 218.1796875 m 1
 866.305664062 97.5966796875 768.763671875 0.0556640625 648.180664062 0.0556640625 c 0
 527.595703125 0.0556640625 429.286132812 97.5966796875 429.286132812 218.1796875 c 2
 429.286132812 800.358398438 l 1
 503.018554688 800.358398438 l 1
 503.018554688 218.1796875 l 2
 503.018554688 138.303710938 568.302734375 73.7880859375 648.180664062 73.7880859375 c 0
 728.056640625 73.7880859375 792.573242188 138.303710938 792.573242188 218.1796875 c 2
 866.305664062 218.1796875 l 1
503.018554688 581.465820312 m 1
 503.018554688 516.181640625 474.6015625 457.810546875 429.2734375 417.889648438 c 0
 390.884765625 384.078125 340.193359375 363.340820312 284.688476562 363.340820312 c 0
 164.310546875 363.340820312 66 460.8828125 66 581.465820312 c 2
 66 800.358398438 l 1
 139.732421875 800.358398438 l 1
 139.732421875 581.465820312 l 2
 139.732421875 501.588867188 205.017578125 437.073242188 284.893554688 437.073242188 c 0
 364.771484375 437.073242188 429.286132812 501.588867188 429.286132812 581.465820312 c 2
 503.018554688 581.465820312 l 1
780.052734375 561.49609375 m 1
 712.541992188 420.098632812 l 1
 645.03125 420.098632812 l 1
 690.037109375 561.49609375 l 1
 780.052734375 561.49609375 l 1
EndSplineSet
EndChar

StartChar: glyph27
Encoding: 283 57979 27
Width: 566
VWidth: 86
Flags: W
HStem: -0.736328 73.7324<61 452.319> 726.526 73.7324<61 452.319>
VStem: 415.453 36.8662<0.0322266 72.9961 726.526 800.183>
LayerCount: 2
Fore
SplineSet
415.453125 0.0322265625 m 1
 415.453125 800.182617188 l 1
 489.185546875 800.182617188 l 1
 489.185546875 0.0322265625 l 1
 415.453125 0.0322265625 l 1
61 72.99609375 m 1
 452.319335938 72.99609375 l 1
 452.319335938 -0.736328125 l 1
 61 -0.736328125 l 1
 61 72.99609375 l 1
61 800.258789062 m 1
 452.319335938 800.258789062 l 1
 452.319335938 726.526367188 l 1
 61 726.526367188 l 1
 61 800.258789062 l 1
EndSplineSet
EndChar

StartChar: glyph28
Encoding: 284 57980 28
Width: 606
VWidth: 86
Flags: W
HStem: -0.789062 73.7324<64 492.187> 363.265 73.7324<64.0771 492.263> 726.474 73.7334<64.0771 492.263>
VStem: 455.319 36.9434<0.0566406 72.9434 363.265 436.997 726.474 800.207>
LayerCount: 2
Fore
SplineSet
455.319335938 0.056640625 m 1
 455.319335938 800.20703125 l 1
 529.052734375 800.20703125 l 1
 529.052734375 0.056640625 l 1
 455.319335938 0.056640625 l 1
64.0771484375 436.997070312 m 1
 492.262695312 436.997070312 l 1
 492.262695312 363.264648438 l 1
 64.0771484375 363.264648438 l 1
 64.0771484375 436.997070312 l 1
64 72.943359375 m 1
 492.186523438 72.943359375 l 1
 492.186523438 -0.7890625 l 1
 64 -0.7890625 l 1
 64 72.943359375 l 1
64.0771484375 800.20703125 m 1
 492.262695312 800.20703125 l 1
 492.262695312 726.473632812 l 1
 64.0771484375 726.473632812 l 1
 64.0771484375 800.20703125 l 1
EndSplineSet
EndChar

StartChar: glyph29
Encoding: 285 57981 29
Width: 585
VWidth: 86
Flags: W
HStem: -0.723633 21G<58 147.573 435.405 529.119> 726.461 73.7334<58.0771 486.262>
LayerCount: 2
Fore
SplineSet
529.119140625 800.194335938 m 1
 137.80078125 -0.7236328125 l 1
 58 -0.7236328125 l 1
 449.3203125 800.194335938 l 1
 529.119140625 800.194335938 l 1
58.0771484375 800.194335938 m 1
 486.26171875 800.194335938 l 1
 486.26171875 726.4609375 l 1
 58.0771484375 726.4609375 l 1
 58.0771484375 800.194335938 l 1
58 561.715820312 m 1
 137.80078125 561.715820312 l 1
 529.119140625 -0.7236328125 l 1
 449.3203125 -0.7236328125 l 1
 58 561.715820312 l 1
EndSplineSet
EndChar

StartChar: glyph30
Encoding: 286 57982 30
Width: 911
VWidth: 86
Flags: W
HStem: -0.720703 83.7178<199.904 274.701> 0.202148 73.7324<571.038 721.166> 172.09 83.7168<199.904 274.701> 363.487 73.7324<207.703 350.48>
VStem: 64 73.7324<506.681 800.505> 109.621 83.7168<89.5628 164.36> 282.432 84.1006<89.5628 127.928 363.487 800.122> 427.285 73.7324<143.396 418.036 581.612 800.505> 790.57 73.7324<143.396 218.326>
LayerCount: 2
Fore
SplineSet
864.302734375 218.326171875 m 1x7380
 864.302734375 97.744140625 766.76171875 0.2021484375 646.178710938 0.2021484375 c 0
 525.595703125 0.2021484375 427.28515625 97.744140625 427.28515625 218.326171875 c 2
 427.28515625 800.504882812 l 1
 501.017578125 800.504882812 l 1
 501.017578125 218.326171875 l 2
 501.017578125 138.450195312 566.30078125 73.9345703125 646.178710938 73.9345703125 c 0
 726.0546875 73.9345703125 790.5703125 138.450195312 790.5703125 218.326171875 c 2
 864.302734375 218.326171875 l 1x7380
501.017578125 581.612304688 m 1
 501.017578125 516.328125 472.599609375 457.95703125 427.272460938 418.036132812 c 0
 388.8828125 384.224609375 338.19140625 363.487304688 282.686523438 363.487304688 c 0
 162.30859375 363.487304688 64 461.029296875 64 581.612304688 c 2
 64 800.504882812 l 1
 137.732421875 800.504882812 l 1
 137.732421875 581.612304688 l 2x3b80
 137.732421875 501.735351562 203.014648438 437.219726562 282.891601562 437.219726562 c 0
 362.76953125 437.219726562 427.28515625 501.735351562 427.28515625 581.612304688 c 2
 501.017578125 581.612304688 l 1
282.5078125 127.620117188 m 1
 282.5078125 800.122070312 l 1
 366.532226562 800.122070312 l 1
 366.532226562 127.620117188 l 1
 282.5078125 127.620117188 l 1
238.268554688 255.806640625 m 0
 309.313476562 255.806640625 366.1484375 198.971679688 366.1484375 127.927734375 c 0
 366.1484375 56.8828125 309.313476562 -0.720703125 238.268554688 -0.720703125 c 0
 167.224609375 -0.720703125 109.62109375 56.8828125 109.62109375 127.927734375 c 0xb780
 109.62109375 198.971679688 167.224609375 255.806640625 238.268554688 255.806640625 c 0
237.884765625 82.9970703125 m 0
 262.461914062 82.9970703125 282.431640625 102.965820312 282.431640625 127.543945312 c 0
 282.431640625 152.12109375 262.461914062 172.08984375 237.884765625 172.08984375 c 0
 213.307617188 172.08984375 193.337890625 152.12109375 193.337890625 127.543945312 c 0
 193.337890625 102.965820312 213.307617188 82.9970703125 237.884765625 82.9970703125 c 0
EndSplineSet
EndChar

StartChar: glyph31
Encoding: 287 57983 31
Width: 738
VWidth: 86
Flags: W
HStem: -0.723633 73.7324<62 667.604> 363.561 73.7324<62 667.604> 652.806 73.7324<62 667.604>
VStem: 327.898 73.7324<0.0439453 800.194>
LayerCount: 2
Fore
SplineSet
327.8984375 0.0439453125 m 1
 327.8984375 800.194335938 l 1
 401.630859375 800.194335938 l 1
 401.630859375 0.0439453125 l 1
 327.8984375 0.0439453125 l 1
62 437.29296875 m 1
 667.604492188 437.29296875 l 1
 667.604492188 363.560546875 l 1
 62 363.560546875 l 1
 62 437.29296875 l 1
62 73.0087890625 m 1
 667.604492188 73.0087890625 l 1
 667.604492188 -0.7236328125 l 1
 62 -0.7236328125 l 1
 62 73.0087890625 l 1
62 726.538085938 m 1
 667.604492188 726.538085938 l 1
 667.604492188 652.805664062 l 1
 62 652.805664062 l 1
 62 726.538085938 l 1
EndSplineSet
EndChar

StartChar: glyph32
Encoding: 288 57984 32
Width: 725
VWidth: 86
Flags: W
HStem: -0.736328 73.7324<62 557.006> 726.449 73.7334<62.0771 667.68>
VStem: 520.216 73.7324<72.9961 800.259> 520.216 36.79<0.646484 72.9961>
LayerCount: 2
Fore
SplineSet
62.0771484375 800.182617188 m 1xc0
 667.6796875 800.182617188 l 1
 667.6796875 726.44921875 l 1
 62.0771484375 726.44921875 l 1
 62.0771484375 800.182617188 l 1xc0
62 72.99609375 m 1
 557.005859375 72.99609375 l 1
 557.005859375 -0.736328125 l 1xd0
 62 -0.736328125 l 1
 62 72.99609375 l 1
593.948242188 800.258789062 m 1xe0
 593.948242188 0.646484375 l 1xe0
 520.215820312 0.646484375 l 1xd0
 520.215820312 800.258789062 l 1
 593.948242188 800.258789062 l 1xe0
EndSplineSet
EndChar

StartChar: glyph33
Encoding: 289 57985 33
Width: 712
VWidth: 86
Flags: W
HStem: -0.800781 73.7324<151.155 547.006> 652.729 73.7324<52 657.604>
VStem: 151.231 73.7324<400.427 800.195> 510.14 73.7324<72.9316 800.271> 510.14 36.8662<0.658203 72.9316>
LayerCount: 2
Fore
SplineSet
52 726.4609375 m 1xe0
 657.604492188 726.4609375 l 1
 657.604492188 652.728515625 l 1
 52 652.728515625 l 1
 52 726.4609375 l 1xe0
151.155273438 72.931640625 m 1
 547.005859375 72.931640625 l 1
 547.005859375 -0.80078125 l 1xe8
 151.155273438 -0.80078125 l 1
 151.155273438 72.931640625 l 1
583.872070312 800.270507812 m 1xf0
 583.872070312 0.658203125 l 1xf0
 510.139648438 0.658203125 l 1xe8
 510.139648438 800.270507812 l 1
 583.872070312 800.270507812 l 1xf0
224.963867188 800.1953125 m 1
 224.963867188 400.426757812 l 1
 151.231445312 400.426757812 l 1
 151.231445312 800.1953125 l 1
 224.963867188 800.1953125 l 1
EndSplineSet
EndChar

StartChar: glyph34
Encoding: 290 57986 34
Width: 671
VWidth: 86
Flags: W
HStem: -0.723633 73.7324<87.8662 595.469>
VStem: 87.8662 73.7324<73.0088 800.194> 521.659 73.7324<479.995 728.381>
LayerCount: 2
Fore
SplineSet
87.8662109375 0.0439453125 m 1
 87.8662109375 800.194335938 l 1
 161.598632812 800.194335938 l 1
 161.598632812 0.0439453125 l 1
 87.8662109375 0.0439453125 l 1
521.659179688 479.995117188 m 1
 521.659179688 728.380859375 l 1
 595.391601562 728.380859375 l 1
 595.391601562 479.995117188 l 1
 521.659179688 479.995117188 l 1
87.8662109375 73.0087890625 m 1
 595.46875 73.0087890625 l 1
 595.46875 -0.7236328125 l 1
 87.8662109375 -0.7236328125 l 1
 87.8662109375 73.0087890625 l 1
595.315429688 717.091796875 m 1
 51 554.112304688 l 1
 51 637.21484375 l 1
 595.315429688 800.194335938 l 1
 595.315429688 717.091796875 l 1
EndSplineSet
EndChar

StartChar: glyph35
Encoding: 291 57987 35
Width: 659
VWidth: 86
Flags: W
HStem: -0.748047 21G<55 165.599> 654.625 73.7314<55 599.468>
VStem: 128.732 73.7324<561.461 800.323>
LayerCount: 2
Fore
SplineSet
202.46484375 800.323242188 m 1
 202.46484375 561.4609375 l 1
 202.46484375 561.4609375 202.46484375 217.375976562 128.732421875 -0.748046875 c 2
 55 -0.748046875 l 1
 128.732421875 217.375976562 128.732421875 561.4609375 128.732421875 561.4609375 c 1
 128.732421875 800.323242188 l 1
 202.46484375 800.323242188 l 1
55 728.356445312 m 1
 599.467773438 728.356445312 l 1
 599.467773438 654.625 l 1
 55 654.625 l 1
 55 728.356445312 l 1
EndSplineSet
EndChar

StartChar: glyph36
Encoding: 292 57988 36
Width: 720
VWidth: 86
Flags: W
HStem: 0.432617 72.8105<220.051 611.37> 181.536 73.7334<220.051 611.37> 363.563 73.7334<220.051 611.37> 654.653 73.7324<54 648.237>
VStem: 220.051 36.8662<0.432617 73.2432 181.536 255.27 363.563 437.297> 574.504 36.8662<0.432617 73.2432 181.536 255.27 363.563 437.297>
LayerCount: 2
Fore
SplineSet
183.184570312 0.4326171875 m 1
 183.184570312 437.373046875 l 1
 256.916992188 437.373046875 l 1
 256.916992188 0.4326171875 l 1
 183.184570312 0.4326171875 l 1
574.50390625 0.4326171875 m 1
 574.50390625 437.373046875 l 1
 648.237304688 437.373046875 l 1
 648.237304688 0.4326171875 l 1
 574.50390625 0.4326171875 l 1
220.05078125 437.296875 m 1
 611.370117188 437.296875 l 1
 611.370117188 363.563476562 l 1
 220.05078125 363.563476562 l 1
 220.05078125 437.296875 l 1
54 728.385742188 m 1
 648.237304688 728.385742188 l 1
 648.237304688 654.653320312 l 1
 54 654.653320312 l 1
 54 728.385742188 l 1
220.05078125 73.2431640625 m 1
 611.370117188 73.2431640625 l 1
 611.370117188 -0.490234375 l 1
 220.05078125 -0.490234375 l 1
 220.05078125 73.2431640625 l 1
220.05078125 255.26953125 m 1
 611.370117188 255.26953125 l 1
 611.370117188 181.536132812 l 1
 220.05078125 181.536132812 l 1
 220.05078125 255.26953125 l 1
54 218.864257812 m 1
 183.107421875 800.274414062 l 1
 256.83984375 800.274414062 l 1
 127.732421875 218.864257812 l 1
 54 218.864257812 l 1
EndSplineSet
EndChar

StartChar: glyph37
Encoding: 293 57989 37
Width: 663
VWidth: 85
Flags: W
HStem: 0.30957 21G<338.191 435.18> 726.266 73.7344<53 559.066>
LayerCount: 2
Fore
SplineSet
617.130859375 800 m 1
 373.965820312 479.724609375 l 1
 278.959960938 479.724609375 l 1
 522.123046875 800 l 1
 617.130859375 800 l 1
53 800 m 1
 559.06640625 800 l 1
 559.06640625 726.265625 l 1
 53 726.265625 l 1
 53 800 l 1
266.056640625 437.250976562 m 1
 435.1796875 0.3095703125 l 1
 345.932617188 0.3095703125 l 1
 176.809570312 437.250976562 l 1
 266.056640625 437.250976562 l 1
EndSplineSet
EndChar

StartChar: glyph38
Encoding: 294 57990 38
Width: 794
VWidth: 86
Flags: W
HStem: -0.789062 21G<67 168.869 356.861 479.331> 372.021 36.8662<67 140.732 646.721 720.454> 726.474 36.8672<67 140.732 356.861 430.594 646.721 720.454>
VStem: 67 73.7324<408.887 726.474> 356.861 73.7324<-0.789062 757.35> 646.721 73.7334<372.021 763.341>
LayerCount: 2
Fore
SplineSet
720.530273438 335.154296875 m 1
 67 335.154296875 l 1
 67 408.88671875 l 1
 720.530273438 408.88671875 l 1
 720.530273438 335.154296875 l 1
720.530273438 726.473632812 m 1
 67 726.473632812 l 1
 67 800.20703125 l 1
 720.530273438 800.20703125 l 1
 720.530273438 726.473632812 l 1
356.861328125 -0.7890625 m 1
 356.861328125 757.349609375 l 1
 430.59375 757.349609375 l 1
 430.59375 -0.7890625 l 1
 356.861328125 -0.7890625 l 1
646.720703125 372.020507812 m 1
 646.720703125 763.340820312 l 1
 720.454101562 763.340820312 l 1
 720.454101562 372.020507812 l 1
 646.720703125 372.020507812 l 1
67 372.020507812 m 1
 67 763.340820312 l 1
 140.732421875 763.340820312 l 1
 140.732421875 372.020507812 l 1
 67 372.020507812 l 1
720.454101562 244.602539062 m 1
 457.935546875 -0.7890625 l 1
 356.861328125 -0.7890625 l 1
 619.455078125 244.602539062 l 1
 720.454101562 244.602539062 l 1
311.930664062 273.787109375 m 1
 157.629882812 -0.7890625 l 1
 67 -0.7890625 l 1
 221.223632812 273.787109375 l 1
 311.930664062 273.787109375 l 1
EndSplineSet
EndChar

StartChar: glyph39
Encoding: 295 57991 39
Width: 571
VWidth: 85
Flags: W
HStem: -0.0771484 21G<246.168 319.9> 216.971 73.7324<55 511.144> 508.521 73.7324<55 511.144>
VStem: 246.168 73.7324<-0.0771484 800.072>
LayerCount: 2
Fore
SplineSet
246.16796875 -0.0771484375 m 1
 246.16796875 800.072265625 l 1
 319.900390625 800.072265625 l 1
 319.900390625 -0.0771484375 l 1
 246.16796875 -0.0771484375 l 1
55 582.25390625 m 1
 511.143554688 582.25390625 l 1
 511.143554688 508.521484375 l 1
 55 508.521484375 l 1
 55 582.25390625 l 1
55 290.703125 m 1
 511.143554688 290.703125 l 1
 511.143554688 216.970703125 l 1
 55 216.970703125 l 1
 55 290.703125 l 1
EndSplineSet
EndChar

StartChar: glyph40
Encoding: 296 57992 40
Width: 606
VWidth: 85
Flags: W
HStem: -0.0771484 21G<69 142.732 460.319 534.052> 561.594 73.6553<105.942 497.263>
VStem: 69 73.7324<-0.0771484 561.517> 105.942 36.79<561.517 635.249> 264.697 73.7324<561.594 800.072> 460.319 73.7324<-0.0771484 561.517> 460.319 36.9434<561.517 635.249>
LayerCount: 2
Fore
SplineSet
69 -0.0771484375 m 1xe8
 69 635.249023438 l 1xe8
 142.732421875 635.249023438 l 1xd8
 142.732421875 -0.0771484375 l 1
 69 -0.0771484375 l 1xe8
460.319335938 -0.0771484375 m 1xcc
 460.319335938 635.249023438 l 1xca
 534.051757812 635.249023438 l 1
 534.051757812 -0.0771484375 l 1
 460.319335938 -0.0771484375 l 1xcc
264.697265625 561.59375 m 1
 264.697265625 800.072265625 l 1
 338.4296875 800.072265625 l 1
 338.4296875 561.59375 l 1
 264.697265625 561.59375 l 1
105.942382812 635.249023438 m 1xda
 497.262695312 635.249023438 l 1
 497.262695312 561.516601562 l 1
 105.942382812 561.516601562 l 1
 105.942382812 635.249023438 l 1xda
EndSplineSet
EndChar

StartChar: glyph41
Encoding: 297 57993 41
Width: 614
VWidth: 86
Flags: W
HStem: 0.0566406 72.8867<108.866 500.186> 726.397 73.7324<108.866 500.186>
VStem: 108.866 36.8662<0.0566406 72.9434 726.397 800.13> 463.319 36.8662<0.0566406 72.9434 726.397 800.13>
LayerCount: 2
Fore
SplineSet
72 0.056640625 m 1
 72 800.20703125 l 1
 145.732421875 800.20703125 l 1
 145.732421875 0.056640625 l 1
 72 0.056640625 l 1
463.319335938 0.056640625 m 1
 463.319335938 800.20703125 l 1
 537.051757812 800.20703125 l 1
 537.051757812 0.056640625 l 1
 463.319335938 0.056640625 l 1
108.866210938 72.943359375 m 1
 500.185546875 72.943359375 l 1
 500.185546875 -0.7890625 l 1
 108.866210938 -0.7890625 l 1
 108.866210938 72.943359375 l 1
108.866210938 800.129882812 m 1
 500.185546875 800.129882812 l 1
 500.185546875 726.397460938 l 1
 108.866210938 726.397460938 l 1
 108.866210938 800.129882812 l 1
EndSplineSet
EndChar

StartChar: glyph42
Encoding: 298 57994 42
Width: 839
VWidth: 86
Flags: W
HStem: -0.853516 21G<91.7705 745.302> 36.0898 36.7881<91.7705 165.504 381.632 455.363 671.569 745.302> 390.467 36.9414<91.7705 165.504 671.569 745.302>
VStem: 91.7705 73.7334<72.8779 390.467> 381.632 73.7314<42.0801 800.219> 671.569 73.7324<36.0898 427.408>
LayerCount: 2
Fore
SplineSet
91.7705078125 464.198242188 m 1
 745.301757812 464.198242188 l 1
 745.301757812 390.466796875 l 1
 91.7705078125 390.466796875 l 1
 91.7705078125 464.198242188 l 1
91.7705078125 72.8779296875 m 1
 745.301757812 72.8779296875 l 1
 745.301757812 -0.853515625 l 1
 91.7705078125 -0.853515625 l 1
 91.7705078125 72.8779296875 l 1
455.36328125 800.21875 m 1
 455.36328125 42.080078125 l 1
 381.631835938 42.080078125 l 1
 381.631835938 800.21875 l 1
 455.36328125 800.21875 l 1
165.50390625 427.408203125 m 1
 165.50390625 36.08984375 l 1
 91.7705078125 36.08984375 l 1
 91.7705078125 427.408203125 l 1
 165.50390625 427.408203125 l 1
745.301757812 427.408203125 m 1
 745.301757812 36.08984375 l 1
 671.569335938 36.08984375 l 1
 671.569335938 427.408203125 l 1
 745.301757812 427.408203125 l 1
794.072265625 525.642578125 m 1
 703.366210938 525.642578125 l 1
 549.065429688 800.21875 l 1
 639.771484375 800.21875 l 1
 794.072265625 525.642578125 l 1
43 525.642578125 m 1
 197.30078125 800.141601562 l 1
 288.006835938 800.141601562 l 1
 133.706054688 525.642578125 l 1
 43 525.642578125 l 1
EndSplineSet
EndChar

StartChar: glyph43
Encoding: 299 57995 43
Width: 799
VWidth: 86
Flags: W
HStem: -0.789062 21G<670.113 721.53> 487.996 73.7324<68 721.53> 726.474 36.8672<68 141.732 357.937 431.669 647.798 721.53>
VStem: 68 73.7324<561.729 726.474> 357.937 73.7324<487.996 757.35> 647.798 73.7324<83.3125 763.341>
LayerCount: 2
Fore
SplineSet
721.530273438 487.99609375 m 1
 68 487.99609375 l 1
 68 561.728515625 l 1
 721.530273438 561.728515625 l 1
 721.530273438 487.99609375 l 1
721.530273438 726.473632812 m 1
 68 726.473632812 l 1
 68 800.20703125 l 1
 721.530273438 800.20703125 l 1
 721.530273438 726.473632812 l 1
357.936523438 487.99609375 m 1
 357.936523438 757.349609375 l 1
 431.668945312 757.349609375 l 1
 431.668945312 487.99609375 l 1
 357.936523438 487.99609375 l 1
647.797851562 83.3125 m 1
 647.797851562 763.340820312 l 1
 721.530273438 763.340820312 l 1
 721.530273438 83.3125 l 1
 647.797851562 83.3125 l 1
68 487.99609375 m 1
 68 763.340820312 l 1
 141.732421875 763.340820312 l 1
 141.732421875 487.99609375 l 1
 68 487.99609375 l 1
431.668945312 196.061523438 m 1
 721.530273438 83.3125 l 1
 721.530273438 -0.7890625 l 1
 431.668945312 111.959960938 l 1
 431.668945312 196.061523438 l 1
EndSplineSet
EndChar

StartChar: glyph44
Encoding: 300 57996 44
Width: 741
VWidth: 86
Flags: W
HStem: -0.789062 21G<54 127.733 127.733 200.467 602.462 676.194> 114.418 66.8203<521.246 546.703> 196.138 73.6562<118.594 509.912> 461.268 73.7324<118.517 509.837> 726.474 73.7334<118.517 509.837>
VStem: 81.6504 73.7324<68.8747 169.388 269.794 461.268 535 726.474> 118.517 36.9434<196.138 269.794 461.268 535 726.474 800.207> 473.046 36.791<196.138 269.794 461.268 535 726.474 800.207> 574.813 73.7324<34.103 500.108 552.269 782.86>
LayerCount: 2
Fore
SplineSet
81.7275390625 196.137695312 m 1xfb80
 81.7275390625 800.20703125 l 1
 155.459960938 800.20703125 l 1
 155.459960938 196.137695312 l 1
 81.7275390625 196.137695312 l 1xfb80
546.703125 181.23828125 m 1
 546.703125 114.41796875 l 1
 127.733398438 -0.7890625 l 1
 127.733398438 66.03125 l 1
 546.703125 181.23828125 l 1
127.733398438 181.23828125 m 1
 127.733398438 181.23828125 155.3828125 131.928710938 155.3828125 90.2255859375 c 0
 155.3828125 48.51953125 127.733398438 -0.7890625 127.733398438 -0.7890625 c 1
 54 -0.7890625 l 1
 54 -0.7890625 81.650390625 45.75390625 81.650390625 90.2255859375 c 0xfd80
 81.650390625 134.6953125 54 181.23828125 54 181.23828125 c 1
 127.733398438 181.23828125 l 1
602.461914062 535 m 2
 602.461914062 535 574.813476562 606.888671875 574.813476562 667.564453125 c 0
 574.813476562 728.240234375 602.461914062 800.129882812 602.461914062 800.129882812 c 1
 676.194335938 800.129882812 l 1
 676.194335938 800.129882812 648.545898438 732.311523438 648.545898438 667.564453125 c 0
 648.545898438 602.818359375 676.194335938 535 676.194335938 535 c 1
 602.461914062 535 l 2
602.461914062 -0.7890625 m 2
 602.461914062 -0.7890625 574.813476562 144.44921875 574.813476562 267.106445312 c 0
 574.813476562 389.762695312 602.461914062 535 602.461914062 535 c 1
 676.194335938 535 l 1
 676.194335938 535 648.545898438 397.98046875 648.545898438 267.10546875 c 0
 648.545898438 136.23046875 676.194335938 -0.7890625 676.194335938 -0.7890625 c 1
 602.461914062 -0.7890625 l 2
473.045898438 196.137695312 m 1
 473.045898438 800.20703125 l 1
 546.778320312 800.20703125 l 1
 546.778320312 196.137695312 l 1
 473.045898438 196.137695312 l 1
118.516601562 535 m 1xfb80
 509.836914062 535 l 1
 509.836914062 461.267578125 l 1
 118.516601562 461.267578125 l 1
 118.516601562 535 l 1xfb80
118.59375 269.793945312 m 1
 509.912109375 269.793945312 l 1
 509.912109375 196.061523438 l 1
 118.59375 196.061523438 l 1
 118.59375 269.793945312 l 1
118.516601562 800.20703125 m 1
 509.836914062 800.20703125 l 1
 509.836914062 726.473632812 l 1
 118.516601562 726.473632812 l 1
 118.516601562 800.20703125 l 1
EndSplineSet
EndChar

StartChar: glyph45
Encoding: 301 57997 45
Width: 693
VWidth: 86
Flags: W
HStem: 0.0566406 21G<72 145.732 512.09 622.152>
VStem: 72 73.7324<0.0566406 800.207>
LayerCount: 2
Fore
SplineSet
72 0.056640625 m 1
 72 800.20703125 l 1
 145.732421875 800.20703125 l 1
 145.732421875 0.056640625 l 1
 72 0.056640625 l 1
622.15234375 726.473632812 m 1
 216.392578125 652.741210938 l 1
 216.392578125 726.473632812 l 1
 622.15234375 800.20703125 l 1
 622.15234375 726.473632812 l 1
622.15234375 72.943359375 m 1
 622.15234375 -0.7890625 l 1
 216.392578125 72.943359375 l 1
 216.392578125 146.67578125 l 1
 622.15234375 72.943359375 l 1
EndSplineSet
EndChar

StartChar: glyph46
Encoding: 302 57998 46
Width: 801
VWidth: 85
Flags: W
HStem: -0.0771484 21G<429.286 503.019> 363.054 73.7324<209.704 360.463> 560.825 79.877<674.677 716.15> 726.339 73.7334<590.345 635.66>
VStem: 66 73.7324<506.248 800.072> 429.286 73.7324<-0.0771484 417.603 581.18 581.18>
LayerCount: 2
Fore
SplineSet
503.018554688 581.1796875 m 1
 503.018554688 515.895507812 474.599609375 457.5234375 429.271484375 417.602539062 c 0
 390.8828125 383.791015625 340.19140625 363.053710938 284.6875 363.053710938 c 0
 164.310546875 363.053710938 66 460.595703125 66 581.1796875 c 2
 66 800.072265625 l 1
 139.732421875 800.072265625 l 1
 139.732421875 581.1796875 l 2
 139.732421875 501.301757812 205.015625 436.786132812 284.891601562 436.786132812 c 0
 364.76953125 436.786132812 429.286132812 501.301757812 429.286132812 581.1796875 c 1
 503.018554688 581.1796875 l 1
429.286132812 -0.0771484375 m 1
 429.286132812 800.072265625 l 1
 503.018554688 800.072265625 l 1
 503.018554688 -0.0771484375 l 1
 429.286132812 -0.0771484375 l 1
680.974609375 481.333007812 m 1
 598.793945312 481.333007812 l 1
 436.736328125 800.072265625 l 1
 519.684570312 800.072265625 l 1
 680.974609375 481.333007812 l 1
635.66015625 800.072265625 m 1
 673.29296875 726.338867188 l 1
 590.344726562 726.338867188 l 1
 552.7109375 800.072265625 l 1
 635.66015625 800.072265625 l 1
756.857421875 560.825195312 m 1
 674.676757812 560.825195312 l 1
 633.970703125 640.702148438 l 1
 716.150390625 640.702148438 l 1
 756.857421875 560.825195312 l 1
EndSplineSet
EndChar

StartChar: glyph47
Encoding: 303 57999 47
Width: 702
VWidth: 85
Flags: W
HStem: -0.0771484 21G<89.8662 163.601 472.662 546.395> 652.606 73.7324<53 648.391>
VStem: 89.8662 73.7344<-0.0771484 399.997> 472.662 73.7324<-0.0771484 800.072>
LayerCount: 2
Fore
SplineSet
472.662109375 -0.0771484375 m 1
 472.662109375 800.072265625 l 1
 546.39453125 800.072265625 l 1
 546.39453125 -0.0771484375 l 1
 472.662109375 -0.0771484375 l 1
89.8662109375 -0.0771484375 m 1
 89.8662109375 399.997070312 l 1
 163.600585938 399.997070312 l 1
 163.600585938 -0.0771484375 l 1
 89.8662109375 -0.0771484375 l 1
53 726.338867188 m 1
 648.390625 726.338867188 l 1
 648.390625 652.606445312 l 1
 53 652.606445312 l 1
 53 726.338867188 l 1
EndSplineSet
EndChar

StartChar: glyph48
Encoding: 304 58000 48
Width: 704
VWidth: 85
Flags: W
HStem: -0.0507812 21G<510.451 621.049> 652.559 73.7314<54 649.391>
VStem: 473.585 73.7314<400.102 800.255>
LayerCount: 2
Fore
SplineSet
621.048828125 -0.05078125 m 1
 547.31640625 -0.05078125 l 2
 473.584960938 199.641601562 473.584960938 400.1015625 473.584960938 400.1015625 c 1
 473.584960938 800.254882812 l 1
 547.31640625 800.254882812 l 1
 547.31640625 400.1015625 l 1
 547.31640625 400.1015625 547.31640625 199.641601562 621.048828125 -0.05078125 c 1
54 726.290039062 m 1
 649.390625 726.290039062 l 1
 649.390625 652.55859375 l 1
 54 652.55859375 l 1
 54 726.290039062 l 1
EndSplineSet
EndChar

StartChar: glyph49
Encoding: 305 58001 49
Width: 955
VWidth: 86
Flags: W
HStem: -0.0205078 72.9639<281.933 673.252> 243.526 73.7324<281.933 673.252> 487.919 73.7324<281.933 673.252>
VStem: 281.933 36.8662<-0.0205078 72.9434 243.526 317.259 487.919 561.651> 636.386 36.8662<-0.0205078 72.9434 243.526 317.259 487.919 561.651>
LayerCount: 2
Fore
SplineSet
245.06640625 -0.0205078125 m 1
 245.06640625 561.651367188 l 1
 318.798828125 561.651367188 l 1
 318.798828125 -0.0205078125 l 1
 245.06640625 -0.0205078125 l 1
636.385742188 -0.0205078125 m 1
 636.385742188 561.651367188 l 1
 710.118164062 561.651367188 l 1
 710.118164062 -0.0205078125 l 1
 636.385742188 -0.0205078125 l 1
281.932617188 317.258789062 m 1
 673.251953125 317.258789062 l 1
 673.251953125 243.526367188 l 1
 281.932617188 243.526367188 l 1
 281.932617188 317.258789062 l 1
281.932617188 72.943359375 m 1
 673.251953125 72.943359375 l 1
 673.251953125 -0.7890625 l 1
 281.932617188 -0.7890625 l 1
 281.932617188 72.943359375 l 1
281.932617188 561.651367188 m 1
 673.251953125 561.651367188 l 1
 673.251953125 487.918945312 l 1
 281.932617188 487.918945312 l 1
 281.932617188 561.651367188 l 1
535.541015625 800.20703125 m 1
 150.903320312 475.706054688 l 1
 39 475.706054688 l 1
 423.63671875 800.20703125 l 1
 535.541015625 800.20703125 l 1
419.720703125 800.20703125 m 1
 531.547851562 800.20703125 l 1
 916.184570312 475.706054688 l 1
 804.280273438 475.706054688 l 1
 419.720703125 800.20703125 l 1
EndSplineSet
EndChar

StartChar: glyph50
Encoding: 306 58002 50
Width: 779
VWidth: 85
Flags: W
HStem: -0.0771484 21G<70 158.704 309.427 424.3> 208.216 72.8877<106.788 265.62 509.245 668.076> 726.339 73.7334<106.788 265.62 509.168 667.999>
VStem: 70 232.563<208.216 281.104 726.263 799.995> 106.788 36.9434<208.216 281.104 726.263 799.995> 228.831 36.7891<208.216 281.104 726.263 799.995> 350.565 73.7344<-0.0771484 800.072> 472.379 232.563<208.216 281.104 726.339 800.072> 509.168 36.9434<208.216 281.104 726.339 800.072> 631.211 36.7881<208.216 281.104 726.339 800.072>
LayerCount: 2
Fore
SplineSet
350.565429688 -0.0771484375 m 1xe2
 350.565429688 800.072265625 l 1
 424.299804688 800.072265625 l 1
 424.299804688 -0.0771484375 l 1
 350.565429688 -0.0771484375 l 1xe2
70 208.215820312 m 1xf2
 70 800.072265625 l 1xf2
 143.731445312 800.072265625 l 1
 143.731445312 208.215820312 l 1xea
 70 208.215820312 l 1xf2
228.831054688 208.215820312 m 1xe6
 228.831054688 800.072265625 l 1xe6
 302.563476562 800.072265625 l 1
 302.563476562 208.215820312 l 1xf2
 228.831054688 208.215820312 l 1xe6
106.788085938 281.103515625 m 1xee
 265.620117188 281.103515625 l 1
 265.620117188 207.37109375 l 1
 106.788085938 207.37109375 l 1
 106.788085938 281.103515625 l 1xee
106.788085938 799.995117188 m 1
 265.620117188 799.995117188 l 1
 265.620117188 726.262695312 l 1
 106.788085938 726.262695312 l 1
 106.788085938 799.995117188 l 1
472.37890625 208.215820312 m 1xe3
 472.37890625 800.072265625 l 1xe3
 546.111328125 800.072265625 l 1
 546.111328125 208.215820312 l 1xe280
 472.37890625 208.215820312 l 1xe3
631.2109375 208.215820312 m 1xe240
 631.2109375 800.072265625 l 1xe240
 704.942382812 800.072265625 l 1
 704.942382812 208.215820312 l 1xe3
 631.2109375 208.215820312 l 1xe240
509.245117188 281.103515625 m 1
 668.076171875 281.103515625 l 1
 668.076171875 207.37109375 l 1
 509.245117188 207.37109375 l 1
 509.245117188 281.103515625 l 1
509.16796875 800.072265625 m 1xe2c0
 667.999023438 800.072265625 l 1
 667.999023438 726.338867188 l 1
 509.16796875 726.338867188 l 1
 509.16796875 800.072265625 l 1xe2c0
302.563476562 142.39453125 m 1xf2
 424.299804688 -0.0771484375 l 1
 326.52734375 -0.0771484375 l 1
 204.713867188 142.39453125 l 1
 302.563476562 142.39453125 l 1xf2
202.640625 142.547851562 m 1
 151.48828125 0.7666015625 l 1
 70 0.7666015625 l 1
 121.227539062 142.547851562 l 1
 202.640625 142.547851562 l 1
EndSplineSet
EndChar

StartChar: glyph51
Encoding: 307 58003 51
Width: 912
VWidth: 85
Flags: W
HStem: -0.0263672 73.7324<572.193 722.321> 726.314 73.7344<203.556 315.152>
VStem: 65.1543 73.7324<506.454 800.278> 428.439 73.7324<143.168 417.809 581.386 800.278> 791.726 73.7314<143.168 188.019>
LayerCount: 2
Fore
SplineSet
865.45703125 162.018554688 m 0
 865.45703125 97.515625 767.916015625 -0.0263671875 647.333007812 -0.0263671875 c 0
 526.75 -0.0263671875 428.439453125 97.515625 428.439453125 218.098632812 c 2
 428.439453125 800.278320312 l 1
 502.171875 800.278320312 l 1
 502.171875 218.098632812 l 2
 502.171875 138.22265625 567.456054688 73.7060546875 647.333007812 73.7060546875 c 0
 727.208984375 73.7060546875 791.725585938 138.22265625 791.725585938 218.098632812 c 1
 791.725585938 218.098632812 865.45703125 218.098632812 865.45703125 162.018554688 c 0
502.171875 581.385742188 m 1
 502.171875 516.1015625 473.75390625 457.729492188 428.42578125 417.80859375 c 0
 390.037109375 383.997070312 339.345703125 363.259765625 283.840820312 363.259765625 c 0
 163.462890625 363.259765625 65.154296875 460.801757812 65.154296875 581.385742188 c 2
 65.154296875 800.278320312 l 1
 138.88671875 800.278320312 l 1
 138.88671875 581.385742188 l 2
 138.88671875 501.5078125 204.168945312 436.9921875 284.046875 436.9921875 c 0
 363.923828125 436.9921875 428.439453125 501.5078125 428.439453125 581.385742188 c 1
 502.171875 581.385742188 l 1
399.252929688 799.970703125 m 1
 149.178710938 -0.1787109375 l 1
 65.154296875 -0.1787109375 l 1
 315.229492188 799.970703125 l 1
 399.252929688 799.970703125 l 1
843.030273438 501.5078125 m 1
 729.12890625 363.259765625 334.046875 95.98046875 177.134765625 -0.0263671875 c 2
 65 -0.0263671875 l 1
 444.107421875 231.462890625 792.338867188 541.446289062 792.338867188 541.446289062 c 1
 843.030273438 501.5078125 l 1
203.555664062 800.048828125 m 1
 315.15234375 800.048828125 l 1
 315.15234375 726.314453125 l 1
 203.555664062 726.314453125 l 1
 203.555664062 800.048828125 l 1
EndSplineSet
EndChar

StartChar: glyph52
Encoding: 308 58004 52
Width: 719
VWidth: 209
Flags: W
HStem: 0.0234375 21G<55 166.959 316.512 419.745> 125.213 52.2285<611.757 651.695> 348.024 52.2266<521.128 561.065> 487.885 73.7324<55 610.683> 652.632 73.7314<55 610.683>
LayerCount: 2
Fore
SplineSet
419.745117188 800.172851562 m 1
 141.943359375 339.575195312 l 1
 55 339.575195312 l 1
 332.87890625 800.172851562 l 1
 419.745117188 800.172851562 l 1
55 726.36328125 m 1
 610.682617188 726.36328125 l 1
 610.682617188 652.631835938 l 1
 55 652.631835938 l 1
 55 726.36328125 l 1
55 561.6171875 m 1
 610.682617188 561.6171875 l 1
 610.682617188 487.884765625 l 1
 55 487.884765625 l 1
 55 561.6171875 l 1
419.745117188 0.0234375 m 1
 332.87890625 0.0234375 l 1
 55 339.575195312 l 1
 141.943359375 339.575195312 l 1
 419.745117188 0.0234375 l 1
55 0.0234375 m 1
 384.876953125 400.09765625 l 1
 480.34375 400.09765625 l 1
 150.46875 0.0234375 l 1
 55 0.0234375 l 1
610.682617188 72.9091796875 m 1
 541.096679688 72.9091796875 l 1
 410.682617188 400.09765625 l 1
 480.34375 400.09765625 l 1
 610.682617188 72.9091796875 l 1
561.065429688 400.250976562 m 1
 581.802734375 348.024414062 l 1
 521.127929688 348.024414062 l 1
 500.389648438 400.250976562 l 1
 561.065429688 400.250976562 l 1
672.432617188 125.212890625 m 1
 611.756835938 125.212890625 l 1
 591.01953125 177.44140625 l 1
 651.6953125 177.44140625 l 1
 672.432617188 125.212890625 l 1
EndSplineSet
EndChar

StartChar: glyph53
Encoding: 309 58005 53
Width: 697
VWidth: 85
Flags: W
HStem: 0.0390625 21G<61 183.019 563.009 640.029> 487.748 73.7324<61 616.682> 652.494 73.7324<61 616.682>
VStem: 194.025 73.7324<758.084 800.189>
LayerCount: 2
Fore
SplineSet
267.7578125 800.189453125 m 1
 134.732421875 0.0390625 l 1
 61 0.0390625 l 1
 194.025390625 800.189453125 l 1
 267.7578125 800.189453125 l 1
640.029296875 -0.0380859375 m 1
 566.296875 -0.0380859375 l 1
 510.23046875 340.974609375 l 1
 583.962890625 340.974609375 l 1
 640.029296875 -0.0380859375 l 1
575.129882812 182.44921875 m 1
 134.732421875 0.0390625 l 1
 134.732421875 73.0029296875 l 1
 575.129882812 255.415039062 l 1
 575.129882812 182.44921875 l 1
61 726.2265625 m 1
 616.681640625 726.2265625 l 1
 616.681640625 652.494140625 l 1
 61 652.494140625 l 1
 61 726.2265625 l 1
61 561.48046875 m 1
 616.681640625 561.48046875 l 1
 616.681640625 487.748046875 l 1
 61 487.748046875 l 1
 61 561.48046875 l 1
EndSplineSet
EndChar

StartChar: glyph54
Encoding: 310 58006 54
Width: 672
VWidth: 86
Flags: W
HStem: -0.813477 21G<293.013 378.802> 562.703 73.7314<52 607.683>
VStem: 533.948 73.7344<358.632 636.435>
LayerCount: 2
Fore
SplineSet
390.862304688 799.567382812 m 1
 149.849609375 398.877929688 l 1
 52 399.646484375 l 1
 293.012695312 800.3359375 l 1
 390.862304688 799.567382812 l 1
52 636.434570312 m 1
 607.682617188 636.434570312 l 1
 607.682617188 562.703125 l 1
 52 562.703125 l 1
 52 636.434570312 l 1
607.682617188 636.434570312 m 1
 607.682617188 358.631835938 l 1
 533.948242188 358.631835938 l 1
 533.948242188 636.434570312 l 1
 607.682617188 636.434570312 l 1
390.862304688 -0.8134765625 m 1
 293.012695312 0.0322265625 l 1
 52 399.646484375 l 1
 149.849609375 398.877929688 l 1
 390.862304688 -0.8134765625 l 1
EndSplineSet
EndChar

StartChar: glyph55
Encoding: 311 58007 55
Width: 800
VWidth: 86
Flags: W
HStem: -0.813477 21G<47 138.231 372.344 480.267>
VStem: 372.344 97.8496<0.799805 798.723>
LayerCount: 2
Fore
SplineSet
338.319335938 798.72265625 m 1
 133.09765625 -0.8134765625 l 1
 47 0.7998046875 l 1
 252.221679688 800.3359375 l 1
 338.319335938 798.72265625 l 1
470.193359375 798.72265625 m 1
 470.193359375 -0.8134765625 l 1
 372.34375 0.7998046875 l 1
 372.34375 800.3359375 l 1
 470.193359375 798.72265625 l 1
753.064453125 562.01171875 m 1
 470.193359375 0.416015625 l 1
 372.34375 0.7998046875 l 1
 655.215820312 562.47265625 l 1
 753.064453125 562.01171875 l 1
EndSplineSet
EndChar

StartChar: glyph56
Encoding: 312 58008 56
Width: 798
VWidth: 85
Flags: W
HStem: -0.0507812 73.7324<456.891 607.02> 726.215 73.7324<54 350.005>
VStem: 313.139 73.7324<143.144 726.215 799.947 800.255> 313.139 36.8662<726.215 799.947> 676.424 73.7324<143.144 187.995>
LayerCount: 2
Fore
SplineSet
750.15625 161.995117188 m 0xe8
 750.15625 97.4912109375 652.614257812 -0.05078125 532.032226562 -0.05078125 c 0
 411.447265625 -0.05078125 313.138671875 97.4912109375 313.138671875 218.07421875 c 2
 313.138671875 800.254882812 l 1
 386.87109375 800.254882812 l 1
 386.87109375 218.07421875 l 2
 386.87109375 138.198242188 452.154296875 73.681640625 532.032226562 73.681640625 c 0
 611.908203125 73.681640625 676.423828125 138.198242188 676.423828125 218.07421875 c 1
 676.423828125 218.07421875 750.15625 218.07421875 750.15625 161.995117188 c 0xe8
54 799.947265625 m 1
 350.004882812 799.947265625 l 1
 350.004882812 726.21484375 l 1xd8
 54 726.21484375 l 1
 54 799.947265625 l 1
EndSplineSet
EndChar

StartChar: glyph57
Encoding: 313 58009 57
Width: 733
VWidth: 85
Flags: W
HStem: -0.219727 21G<402.069 514.293> 487.797 73.7324<62 453.318> 726.275 73.7324<62 453.318>
VStem: 605.009 73.7314<766.943 800.161>
LayerCount: 2
Fore
SplineSet
62 800.0078125 m 1
 453.318359375 800.0078125 l 1
 453.318359375 726.275390625 l 1
 62 726.275390625 l 1
 62 800.0078125 l 1
62 561.529296875 m 1
 453.318359375 561.529296875 l 1
 453.318359375 487.796875 l 1
 62 487.796875 l 1
 62 561.529296875 l 1
436.345703125 -0.2197265625 m 1
 605.008789062 800.161132812 l 1
 678.740234375 800.161132812 l 1
 510.078125 -0.2197265625 l 1
 436.345703125 -0.2197265625 l 1
417.681640625 -0.2197265625 m 1
 269.83203125 189.180664062 l 1
 362.228515625 189.180664062 l 1
 510.078125 -0.2197265625 l 1
 417.681640625 -0.2197265625 l 1
EndSplineSet
EndChar

StartChar: glyph58
Encoding: 314 58010 58
Width: 767
VWidth: 86
Flags: W
HStem: -0.789062 21G<58 159.868 347.86 470.33> 726.474 73.7334<58 347.86 421.593 637.797> 726.474 30.876<347.86 421.593>
VStem: 347.86 73.7324<-0.789062 757.35> 563.987 73.7324<470.022 501.369>
LayerCount: 2
Fore
SplineSet
637.796875 726.473632812 m 1xd8
 58 726.473632812 l 1
 58 800.20703125 l 1
 637.796875 800.20703125 l 1
 637.796875 726.473632812 l 1xd8
347.860351562 -0.7890625 m 1
 347.860351562 757.349609375 l 1
 421.592773438 757.349609375 l 1xb8
 421.592773438 -0.7890625 l 1
 347.860351562 -0.7890625 l 1
711.453125 800.20703125 m 1xd8
 637.719726562 470.022460938 l 1
 563.987304688 470.022460938 l 1
 637.719726562 800.20703125 l 1
 711.453125 800.20703125 l 1xd8
711.453125 244.602539062 m 1
 448.934570312 -0.7890625 l 1
 347.860351562 -0.7890625 l 1
 610.455078125 244.602539062 l 1
 711.453125 244.602539062 l 1
302.9296875 273.787109375 m 1
 148.62890625 -0.7890625 l 1
 58 -0.7890625 l 1
 212.223632812 273.787109375 l 1
 302.9296875 273.787109375 l 1
EndSplineSet
EndChar

StartChar: glyph59
Encoding: 315 58011 59
Width: 571
VWidth: 85
Flags: W
HStem: -0.0771484 21G<246.168 319.9> 216.971 73.7324<55 511.144> 508.521 73.7324<55 511.144>
VStem: 246.168 73.7324<-0.0771484 800.072>
LayerCount: 2
Fore
SplineSet
246.16796875 -0.0771484375 m 1
 246.16796875 800.072265625 l 1
 319.900390625 800.072265625 l 1
 319.900390625 -0.0771484375 l 1
 246.16796875 -0.0771484375 l 1
55 582.25390625 m 1
 511.143554688 582.25390625 l 1
 511.143554688 508.521484375 l 1
 55 508.521484375 l 1
 55 582.25390625 l 1
55 290.703125 m 1
 511.143554688 290.703125 l 1
 511.143554688 216.970703125 l 1
 55 216.970703125 l 1
 55 290.703125 l 1
EndSplineSet
EndChar

StartChar: glyph60
Encoding: 316 58012 60
Width: 615
VWidth: 85
Flags: W
HStem: -0.0771484 21G<73 146.732 464.319 538.052> 726.263 73.7324<109.866 501.186>
VStem: 73 73.7324<-0.0771484 726.263 799.995 800.072> 109.866 36.8662<726.263 799.995> 464.319 73.7324<-0.0771484 726.263 799.995 800.072> 464.319 36.8662<726.263 799.995>
LayerCount: 2
Fore
SplineSet
73 -0.0771484375 m 1xe0
 73 800.072265625 l 1
 146.732421875 800.072265625 l 1
 146.732421875 -0.0771484375 l 1
 73 -0.0771484375 l 1xe0
464.319335938 -0.0771484375 m 1xc8
 464.319335938 800.072265625 l 1
 538.051757812 800.072265625 l 1
 538.051757812 -0.0771484375 l 1
 464.319335938 -0.0771484375 l 1xc8
109.866210938 799.995117188 m 1xd4
 501.185546875 799.995117188 l 1
 501.185546875 726.262695312 l 1
 109.866210938 726.262695312 l 1
 109.866210938 799.995117188 l 1xd4
EndSplineSet
EndChar

StartChar: glyph61
Encoding: 317 58013 61
Width: 795
VWidth: 86
Flags: W
HStem: 0.0566406 72.8867<108.943 681.674> 726.397 73.7324<108.866 681.598>
VStem: 108.943 36.7891<0.0566406 72.9434 726.397 800.13> 358.403 73.7324<0.0566406 800.207> 644.731 36.9424<0.0566406 72.9434 726.397 800.13>
LayerCount: 2
Fore
SplineSet
72 0.056640625 m 1
 72 800.20703125 l 1
 145.732421875 800.20703125 l 1
 145.732421875 0.056640625 l 1
 72 0.056640625 l 1
358.403320312 0.056640625 m 1
 358.403320312 800.20703125 l 1
 432.135742188 800.20703125 l 1
 432.135742188 0.056640625 l 1
 358.403320312 0.056640625 l 1
644.731445312 0.056640625 m 1
 644.731445312 800.20703125 l 1
 718.463867188 800.20703125 l 1
 718.463867188 0.056640625 l 1
 644.731445312 0.056640625 l 1
108.943359375 72.943359375 m 1
 681.673828125 72.943359375 l 1
 681.673828125 -0.7890625 l 1
 108.943359375 -0.7890625 l 1
 108.943359375 72.943359375 l 1
108.866210938 800.129882812 m 1
 681.59765625 800.129882812 l 1
 681.59765625 726.397460938 l 1
 108.866210938 726.397460938 l 1
 108.866210938 800.129882812 l 1
EndSplineSet
EndChar

StartChar: glyph62
Encoding: 318 58014 62
Width: 837
VWidth: 86
Flags: W
HStem: -0.789062 21G<209.435 312.196 522.876 625.638> 291.914 36.8652<90.7705 164.504 670.569 744.302> 311.652 17.127<380.632 454.363> 487.535 36.8662<90.7705 164.504 670.569 744.302>
VStem: 90.7705 73.7334<328.779 487.535> 380.632 73.7314<311.652 800.13> 670.569 73.7324<291.914 524.401>
LayerCount: 2
Fore
SplineSet
90.7705078125 561.267578125 m 1x9e
 744.301757812 561.267578125 l 1
 744.301757812 487.53515625 l 1
 90.7705078125 487.53515625 l 1
 90.7705078125 561.267578125 l 1x9e
90.7705078125 328.779296875 m 1xde
 744.301757812 328.779296875 l 1
 744.301757812 255.047851562 l 1
 90.7705078125 255.047851562 l 1
 90.7705078125 328.779296875 l 1xde
454.36328125 800.129882812 m 1
 454.36328125 311.65234375 l 1
 380.631835938 311.65234375 l 1xbe
 380.631835938 800.129882812 l 1
 454.36328125 800.129882812 l 1
164.50390625 524.401367188 m 1
 164.50390625 291.9140625 l 1
 90.7705078125 291.9140625 l 1xde
 90.7705078125 524.401367188 l 1
 164.50390625 524.401367188 l 1
744.301757812 524.401367188 m 1
 744.301757812 291.9140625 l 1
 670.569335938 291.9140625 l 1
 670.569335938 524.401367188 l 1
 744.301757812 524.401367188 l 1
793.072265625 598.671875 m 1
 702.366210938 598.671875 l 1
 548.065429688 800.20703125 l 1
 638.771484375 800.20703125 l 1
 793.072265625 598.671875 l 1
625.637695312 -0.7890625 m 1
 534.932617188 -0.7890625 l 1
 380.708984375 255.047851562 l 1
 471.337890625 255.047851562 l 1
 625.637695312 -0.7890625 l 1
42 598.671875 m 1
 196.30078125 800.129882812 l 1
 287.006835938 800.129882812 l 1
 132.706054688 598.671875 l 1
 42 598.671875 l 1
209.434570312 -0.7890625 m 1
 363.734375 255.047851562 l 1
 454.36328125 255.047851562 l 1
 300.139648438 -0.7890625 l 1
 209.434570312 -0.7890625 l 1
EndSplineSet
EndChar

StartChar: glyph63
Encoding: 319 58015 63
Width: 797
VWidth: 86
Flags: W
HStem: -0.250977 21G<118.207 210.537 377.286 474.657 668.784 720.201> 253.435 79.9541<549.771 591.247> 372.175 73.7324<491.247 536.562> 487.996 73.7324<66.6719 720.201> 726.474 36.8672<66.6719 140.404 356.608 430.341 646.469 720.201>
VStem: 66.6719 73.7324<561.729 726.474> 356.608 73.7324<487.996 757.35> 646.469 73.7324<83.3125 763.341>
LayerCount: 2
Fore
SplineSet
426.9609375 445.983398438 m 1
 388.559570312 369.947265625 l 1
 338.63671875 272.405273438 l 1
 305.609375 207.12109375 l 1
 200.388671875 -0.2509765625 l 1
 118.20703125 -0.2509765625 l 1
 256.455078125 272.405273438 l 1
 289.48046875 337.688476562 l 1
 344.012695312 445.983398438 l 1
 426.9609375 445.983398438 l 1
426.9609375 445.983398438 m 1
 388.559570312 369.947265625 l 1
 338.63671875 272.405273438 l 1
 305.609375 207.12109375 l 1
 200.388671875 -0.2509765625 l 1
 118.20703125 -0.2509765625 l 1
 256.455078125 272.405273438 l 1
 289.48046875 337.688476562 l 1
 344.012695312 445.983398438 l 1
 426.9609375 445.983398438 l 1
474.657226562 -0.2509765625 m 1
 392.552734375 -0.2509765625 l 1
 234.2578125 207.12109375 l 1
 185.181640625 272.405273438 l 1
 53 445.983398438 l 1
 135.181640625 445.983398438 l 1
 218.129882812 337.688476562 l 1
 267.361328125 272.405273438 l 1
 474.657226562 -0.2509765625 l 1
553.458984375 206.352539062 m 1
 471.27734375 206.352539062 l 1
 388.329101562 369.947265625 l 1
 349.158203125 445.983398438 l 1
 432.107421875 445.983398438 l 1
 553.458984375 206.352539062 l 1
536.561523438 445.907226562 m 1
 574.196289062 372.174804688 l 1
 491.247070312 372.174804688 l 1
 453.612304688 445.907226562 l 1
 536.561523438 445.907226562 l 1
631.953125 253.434570312 m 1
 549.771484375 253.434570312 l 1
 509.065429688 333.388671875 l 1
 591.247070312 333.388671875 l 1
 631.953125 253.434570312 l 1
720.201171875 487.99609375 m 1
 66.671875 487.99609375 l 1
 66.671875 561.728515625 l 1
 720.201171875 561.728515625 l 1
 720.201171875 487.99609375 l 1
720.201171875 726.473632812 m 1
 66.671875 726.473632812 l 1
 66.671875 800.20703125 l 1
 720.201171875 800.20703125 l 1
 720.201171875 726.473632812 l 1
356.608398438 487.99609375 m 1
 356.608398438 757.349609375 l 1
 430.340820312 757.349609375 l 1
 430.340820312 487.99609375 l 1
 356.608398438 487.99609375 l 1
646.46875 83.3125 m 1
 646.46875 763.340820312 l 1
 720.201171875 763.340820312 l 1
 720.201171875 83.3125 l 1
 646.46875 83.3125 l 1
66.671875 487.99609375 m 1
 66.671875 763.340820312 l 1
 140.404296875 763.340820312 l 1
 140.404296875 487.99609375 l 1
 66.671875 487.99609375 l 1
430.340820312 196.061523438 m 1
 720.201171875 83.3125 l 1
 720.201171875 -0.7890625 l 1
 430.340820312 111.959960938 l 1
 430.340820312 196.061523438 l 1
EndSplineSet
EndChar

StartChar: glyph64
Encoding: 320 58016 64
Width: 619
VWidth: 86
Flags: W
HStem: -0.789062 21G<60 133.732 133.732 206.466 478.97 552.702> 196.138 73.6562<110.769 502.088> 461.268 73.7324<110.691 502.012> 726.474 73.7334<110.691 502.012>
VStem: 87.6504 73.7324<68.8747 169.388> 110.691 36.9434<196.138 269.794 461.268 535 726.474 800.207> 451.321 73.7314<6.71943 92.103> 465.145 36.8672<196.138 269.794 461.268 535 726.474 800.207>
LayerCount: 2
Fore
SplineSet
73.90234375 196.137695312 m 1xf4
 73.90234375 800.20703125 l 1
 147.634765625 800.20703125 l 1
 147.634765625 196.137695312 l 1
 73.90234375 196.137695312 l 1xf4
552.702148438 181.23828125 m 1
 552.702148438 114.41796875 l 1
 133.732421875 -0.7890625 l 1
 133.732421875 66.03125 l 1
 552.702148438 181.23828125 l 1
133.732421875 181.23828125 m 1
 133.732421875 181.23828125 161.3828125 131.928710938 161.3828125 90.2255859375 c 0
 161.3828125 48.51953125 133.732421875 -0.7890625 133.732421875 -0.7890625 c 1
 60 -0.7890625 l 1
 60 -0.7890625 87.650390625 45.75390625 87.650390625 90.2255859375 c 0xf8
 87.650390625 134.6953125 60 181.23828125 60 181.23828125 c 1
 133.732421875 181.23828125 l 1
478.969726562 -0.7890625 m 2
 478.969726562 -0.7890625 451.321289062 30.470703125 451.321289062 56.814453125 c 0
 451.321289062 83.158203125 478.969726562 114.41796875 478.969726562 114.41796875 c 1
 552.702148438 114.41796875 l 1
 552.702148438 114.41796875 525.052734375 84.92578125 525.052734375 56.814453125 c 0xf2
 525.052734375 28.7041015625 552.702148438 -0.7890625 552.702148438 -0.7890625 c 1
 478.969726562 -0.7890625 l 2
465.14453125 196.137695312 m 1xf1
 465.14453125 800.20703125 l 1
 538.877929688 800.20703125 l 1
 538.877929688 196.137695312 l 1
 465.14453125 196.137695312 l 1xf1
110.69140625 535 m 1xf5
 502.01171875 535 l 1
 502.01171875 461.267578125 l 1
 110.69140625 461.267578125 l 1
 110.69140625 535 l 1xf5
110.768554688 269.793945312 m 1
 502.087890625 269.793945312 l 1
 502.087890625 196.061523438 l 1
 110.768554688 196.061523438 l 1
 110.768554688 269.793945312 l 1
110.69140625 800.20703125 m 1
 502.01171875 800.20703125 l 1
 502.01171875 726.473632812 l 1
 110.69140625 726.473632812 l 1
 110.69140625 800.20703125 l 1
EndSplineSet
EndChar

StartChar: glyph65
Encoding: 321 58017 65
Width: 608
VWidth: 86
Flags: W
HStem: -0.789062 73.7324<108.866 537.052> 726.397 73.7324<108.866 537.052>
VStem: 108.866 36.8662<0.0566406 72.9434 726.397 800.13>
LayerCount: 2
Fore
SplineSet
72 0.056640625 m 1
 72 800.20703125 l 1
 145.732421875 800.20703125 l 1
 145.732421875 0.056640625 l 1
 72 0.056640625 l 1
108.866210938 72.943359375 m 1
 537.051757812 72.943359375 l 1
 537.051757812 -0.7890625 l 1
 108.866210938 -0.7890625 l 1
 108.866210938 72.943359375 l 1
108.866210938 800.129882812 m 1
 537.051757812 800.129882812 l 1
 537.051757812 726.397460938 l 1
 108.866210938 726.397460938 l 1
 108.866210938 800.129882812 l 1
EndSplineSet
EndChar

StartChar: glyph66
Encoding: 322 58018 66
Width: 777
VWidth: 86
Flags: W
HStem: -0.466797 21G<405.171 478.903> 362.743 73.7324<103.866 442.037> 560.438 79.876<650.562 692.036> 725.951 73.7344<566.23 611.546>
VStem: 67 73.7324<436.476 800.146> 103.866 36.8662<362.82 436.476> 405.171 73.7324<-0.466797 362.743> 405.171 36.8662<362.743 436.476>
LayerCount: 2
Fore
SplineSet
67 362.8203125 m 1xf8
 67 800.146484375 l 1
 140.732421875 800.146484375 l 1xf8
 140.732421875 362.8203125 l 1xf4
 67 362.8203125 l 1xf8
103.866210938 436.475585938 m 1xf5
 442.037109375 436.475585938 l 1
 442.037109375 362.743164062 l 1
 103.866210938 362.743164062 l 1
 103.866210938 436.475585938 l 1xf5
405.170898438 -0.466796875 m 1xf2
 405.170898438 799.685546875 l 1xf1
 478.903320312 799.685546875 l 1
 478.903320312 -0.466796875 l 1
 405.170898438 -0.466796875 l 1xf2
656.859375 480.9453125 m 1
 574.6796875 480.9453125 l 1
 412.62109375 799.685546875 l 1
 495.5703125 799.685546875 l 1
 656.859375 480.9453125 l 1
611.545898438 799.685546875 m 1
 649.178710938 725.951171875 l 1
 566.23046875 725.951171875 l 1
 528.595703125 799.685546875 l 1
 611.545898438 799.685546875 l 1
732.7421875 560.438476562 m 1
 650.5625 560.438476562 l 1
 609.85546875 640.314453125 l 1
 692.036132812 640.314453125 l 1
 732.7421875 560.438476562 l 1
EndSplineSet
EndChar

StartChar: glyph67
Encoding: 323 58019 67
Width: 711
VWidth: 86
Flags: W
HStem: -0.339844 21G<151.998 225.73> 72.9316 73.7314<371.658 645.391> 652.346 73.7324<50 645.391>
VStem: 151.998 73.7324<-0.339844 799.81>
LayerCount: 2
Fore
SplineSet
225.73046875 799.809570312 m 1
 225.73046875 -0.33984375 l 1
 151.998046875 -0.33984375 l 1
 151.998046875 799.809570312 l 1
 225.73046875 799.809570312 l 1
371.658203125 146.663085938 m 1
 645.390625 146.663085938 l 1
 645.390625 72.931640625 l 1
 371.658203125 72.931640625 l 1
 371.658203125 146.663085938 l 1
50 726.078125 m 1
 645.390625 726.078125 l 1
 645.390625 652.345703125 l 1
 50 652.345703125 l 1
 50 726.078125 l 1
EndSplineSet
EndChar

StartChar: glyph68
Encoding: 324 58020 68
Width: 691
VWidth: 86
Flags: W
HStem: -0.46875 21G<147.998 221.73> 73.4932 73.7324<46 641.391>
VStem: 147.998 73.7324<-0.46875 399.683>
LayerCount: 2
Fore
SplineSet
74.265625 799.833984375 m 1
 147.998046875 799.833984375 l 2
 221.73046875 600.141601562 221.73046875 399.682617188 221.73046875 399.682617188 c 1
 221.73046875 -0.46875 l 1
 147.998046875 -0.46875 l 1
 147.998046875 399.682617188 l 1
 147.998046875 399.682617188 147.998046875 600.141601562 74.265625 799.833984375 c 1
641.390625 73.4931640625 m 1
 46 73.4931640625 l 1
 46 147.225585938 l 1
 641.390625 147.225585938 l 1
 641.390625 73.4931640625 l 1
EndSplineSet
EndChar

StartChar: glyph69
Encoding: 325 58021 69
Width: 712
VWidth: 10
Flags: W
HStem: 400.062 324.501
LayerCount: 2
Fore
SplineSet
311.971679688 724.563476562 m 1
 403.369140625 724.563476562 l 1
 665.197265625 400.0625 l 1
 573.875 400.0625 l 1
 311.971679688 724.563476562 l 1
397.225585938 724.563476562 m 1
 135.397460938 400.0625 l 1
 44 400.0625 l 1
 305.905273438 724.563476562 l 1
 397.225585938 724.563476562 l 1
EndSplineSet
EndChar

StartChar: glyph70
Encoding: 326 58022 70
Width: 612
VWidth: 86
Flags: W
HStem: -0.789062 73.7324<106.866 535.053> 362.805 73.7314<106.944 498.265> 726.474 73.7334<70 498.187>
VStem: 106.866 36.9434<-0.0205078 72.9434 362.805 436.536> 461.396 36.79<362.882 436.536 726.474 800.207>
LayerCount: 2
Fore
SplineSet
70.078125 -0.0205078125 m 1
 70.078125 436.536132812 l 1
 143.809570312 436.536132812 l 1
 143.809570312 -0.0205078125 l 1
 70.078125 -0.0205078125 l 1
461.396484375 362.881835938 m 1
 461.396484375 800.20703125 l 1
 535.130859375 800.20703125 l 1
 535.130859375 362.881835938 l 1
 461.396484375 362.881835938 l 1
106.866210938 72.943359375 m 1
 535.052734375 72.943359375 l 1
 535.052734375 -0.7890625 l 1
 106.866210938 -0.7890625 l 1
 106.866210938 72.943359375 l 1
70 800.20703125 m 1
 498.186523438 800.20703125 l 1
 498.186523438 726.473632812 l 1
 70 726.473632812 l 1
 70 800.20703125 l 1
106.944335938 436.536132812 m 1
 498.264648438 436.536132812 l 1
 498.264648438 362.8046875 l 1
 106.944335938 362.8046875 l 1
 106.944335938 436.536132812 l 1
EndSplineSet
EndChar

StartChar: glyph71
Encoding: 327 58023 71
Width: 930
VWidth: 81
Flags: W
HStem: -4.1416 73.7324<573.039 723.166> 359.144 73.7324<209.703 360.463> 623.889 62.9805<735.7 799.886> 757.529 63.748<735.7 799.886>
VStem: 66 73.7324<502.338 796.161> 429.285 73.7324<139.052 413.692 577.269 796.161> 669.452 62.9814<690.379 754.404> 792.57 73.7324<139.052 213.983> 803.094 62.9785<690.379 754.404>
LayerCount: 2
Fore
SplineSet
866.302734375 213.983398438 m 1xff
 866.302734375 93.400390625 768.76171875 -4.1416015625 648.178710938 -4.1416015625 c 0
 527.595703125 -4.1416015625 429.28515625 93.400390625 429.28515625 213.983398438 c 2
 429.28515625 796.161132812 l 1
 503.017578125 796.161132812 l 1
 503.017578125 213.983398438 l 2
 503.017578125 134.106445312 568.301757812 69.5908203125 648.178710938 69.5908203125 c 0
 728.0546875 69.5908203125 792.5703125 134.106445312 792.5703125 213.983398438 c 1
 866.302734375 213.983398438 l 1xff
503.017578125 577.268554688 m 1
 503.017578125 511.985351562 474.599609375 453.61328125 429.270507812 413.692382812 c 0
 390.8828125 379.880859375 340.19140625 359.143554688 284.686523438 359.143554688 c 0
 164.30859375 359.143554688 66 456.685546875 66 577.268554688 c 2
 66 796.161132812 l 1
 139.732421875 796.161132812 l 1
 139.732421875 577.268554688 l 2
 139.732421875 497.392578125 205.014648438 432.875976562 284.892578125 432.875976562 c 0
 364.76953125 432.875976562 429.28515625 497.392578125 429.28515625 577.268554688 c 1
 503.017578125 577.268554688 l 1
767.762695312 821.27734375 m 0
 822.293945312 821.27734375 866.072265625 776.73046875 866.072265625 722.583984375 c 0xfe80
 866.072265625 668.435546875 822.293945312 623.888671875 767.762695312 623.888671875 c 0
 713.231445312 623.888671875 669.452148438 668.435546875 669.452148438 722.583984375 c 0
 669.452148438 776.73046875 713.231445312 821.27734375 767.762695312 821.27734375 c 0
768.145507812 686.869140625 m 0
 787.731445312 686.869140625 803.09375 702.998046875 803.09375 722.19921875 c 0
 803.09375 741.399414062 787.731445312 757.529296875 768.145507812 757.529296875 c 0
 748.561523438 757.529296875 732.43359375 741.399414062 732.43359375 722.19921875 c 0
 732.43359375 702.998046875 748.561523438 686.869140625 768.145507812 686.869140625 c 0
EndSplineSet
EndChar

StartChar: glyph72
Encoding: 328 58024 72
Width: 599
VWidth: 86
Flags: W
HStem: -0.789062 73.7324<171.294 528.052> 487.919 73.7324<63 528.052> 652.665 73.7324<63 528.052>
VStem: 221.831 73.7324<400.131 800.207>
LayerCount: 2
Fore
SplineSet
221.831054688 400.130859375 m 1
 221.831054688 800.20703125 l 1
 295.563476562 800.20703125 l 1
 295.563476562 400.130859375 l 1
 221.831054688 400.130859375 l 1
528.051757812 487.918945312 m 1
 171.293945312 72.943359375 l 1
 63 72.943359375 l 1
 419.756835938 487.918945312 l 1
 528.051757812 487.918945312 l 1
63 72.943359375 m 1
 528.051757812 72.943359375 l 1
 528.051757812 -0.7890625 l 1
 63 -0.7890625 l 1
 63 72.943359375 l 1
63 726.397460938 m 1
 528.051757812 726.397460938 l 1
 528.051757812 652.665039062 l 1
 63 652.665039062 l 1
 63 726.397460938 l 1
63 561.651367188 m 1
 528.051757812 561.651367188 l 1
 528.051757812 487.918945312 l 1
 63 487.918945312 l 1
 63 561.651367188 l 1
EndSplineSet
EndChar

StartChar: glyph73
Encoding: 329 58025 73
Width: 614
VWidth: 85
Flags: W
HStem: -0.0771484 21G<50 172.019>
VStem: 183.025 73.7324<757.967 800.072>
LayerCount: 2
Fore
SplineSet
256.7578125 800.072265625 m 1
 123.732421875 -0.0771484375 l 1
 50 -0.0771484375 l 1
 183.025390625 800.072265625 l 1
 256.7578125 800.072265625 l 1
564.129882812 182.333007812 m 1
 123.732421875 -0.0771484375 l 1
 123.732421875 72.80859375 l 1
 564.129882812 255.220703125 l 1
 564.129882812 182.333007812 l 1
EndSplineSet
EndChar

StartChar: glyph74
Encoding: 330 58026 74
Width: 674
VWidth: 86
Flags: W
HStem: -0.866211 21G<67.0622 152.849 296.013 381.8> 236.077 77.5732<513.907 560.758> 322.328 77.5732<456.073 503.691> 562.65 73.7314<55 610.682>
VStem: 536.948 73.7334<358.58 636.382>
LayerCount: 2
Fore
SplineSet
393.862304688 799.438476562 m 1
 152.848632812 398.749023438 l 1
 55 399.59375 l 1
 296.012695312 800.283203125 l 1
 393.862304688 799.438476562 l 1
55 636.381835938 m 1
 610.681640625 636.381835938 l 1
 610.681640625 562.650390625 l 1
 55 562.650390625 l 1
 55 636.381835938 l 1
610.681640625 636.381835938 m 1
 610.681640625 358.580078125 l 1
 536.948242188 358.580078125 l 1
 536.948242188 636.381835938 l 1
 610.681640625 636.381835938 l 1
393.862304688 -0.8662109375 m 1
 296.012695312 -0.09765625 l 1
 55 399.59375 l 1
 152.848632812 398.749023438 l 1
 393.862304688 -0.8662109375 l 1
55 -0.8662109375 m 1
 296.012695312 398.749023438 l 1
 393.862304688 399.59375 l 1
 152.848632812 -0.09765625 l 1
 55 -0.8662109375 l 1
512.83203125 72.560546875 m 1
 296.012695312 398.749023438 l 1
 393.862304688 399.59375 l 1
 610.681640625 73.328125 l 1
 512.83203125 72.560546875 l 1
503.69140625 399.901367188 m 1
 555.151367188 322.328125 l 1
 456.073242188 322.328125 l 1
 405.381835938 398.364257812 l 1
 503.69140625 399.901367188 l 1
611.448242188 236.844726562 m 1
 513.907226562 236.077148438 l 1
 462.44921875 313.650390625 l 1
 560.7578125 313.650390625 l 1
 611.448242188 236.844726562 l 1
EndSplineSet
EndChar

StartChar: glyph75
Encoding: 331 58027 75
Width: 616
VWidth: 85
Flags: W
HStem: -0.603516 21G<72 184.05>
VStem: 72 97.8486<1.00977 798.932>
LayerCount: 2
Fore
SplineSet
169.848632812 798.931640625 m 1
 169.848632812 -0.603515625 l 1
 72 1.009765625 l 1
 72 800.545898438 l 1
 169.848632812 798.931640625 l 1
568.618164062 562.219726562 m 1
 169.848632812 0.6259765625 l 1
 72 1.009765625 l 1
 470.76953125 562.680664062 l 1
 568.618164062 562.219726562 l 1
EndSplineSet
EndChar

StartChar: glyph76
Encoding: 332 58028 76
Width: 797
VWidth: 86
Flags: W
HStem: -0.46875 73.7324<456.891 607.02> 725.794 73.7344<54 350.005>
VStem: 313.139 73.7324<142.725 725.794 799.528 799.834> 313.139 36.8662<725.794 799.528> 676.424 73.7324<142.725 217.655>
LayerCount: 2
Fore
SplineSet
750.15625 217.655273438 m 1xe8
 750.15625 97.072265625 652.614257812 -0.46875 532.032226562 -0.46875 c 0
 411.447265625 -0.46875 313.138671875 97.072265625 313.138671875 217.655273438 c 2
 313.138671875 799.833984375 l 1
 386.87109375 799.833984375 l 1
 386.87109375 217.655273438 l 2
 386.87109375 137.779296875 452.154296875 73.263671875 532.032226562 73.263671875 c 0
 611.908203125 73.263671875 676.423828125 137.779296875 676.423828125 217.655273438 c 1
 750.15625 217.655273438 l 1xe8
54 799.528320312 m 1
 350.004882812 799.528320312 l 1
 350.004882812 725.793945312 l 1xd8
 54 725.793945312 l 1
 54 799.528320312 l 1
EndSplineSet
EndChar

StartChar: glyph77
Encoding: 333 58029 77
Width: 502
VWidth: 86
Flags: W
HStem: -0.545898 21G<172.243 284.46>
VStem: 375.176 73.7324<766.69 799.911>
LayerCount: 2
Fore
SplineSet
206.513671875 -0.5458984375 m 1
 375.17578125 799.911132812 l 1
 448.908203125 799.911132812 l 1
 280.24609375 -0.5458984375 l 1
 206.513671875 -0.5458984375 l 1
187.849609375 -0.5458984375 m 1
 40 188.930664062 l 1
 132.396484375 188.930664062 l 1
 280.24609375 -0.5458984375 l 1
 187.849609375 -0.5458984375 l 1
EndSplineSet
EndChar
